<svg width="3736" height="9160" viewBox="0 0 3736 9160" fill="none" xmlns="http://www.w3.org/2000/svg">
<g clip-path="url(#clip0_5_31)">
<rect width="3736" height="9160" fill="white"/>
<g filter="url(#filter0_d_5_31)">
<path d="M-12.8984 -115H4433.58V4907.45H-12.8984V-115Z" fill="url(#paint0_linear_5_31)"/>
<path d="M4433.08 -114.5V4906.95H-12.3984V-114.5H4433.08Z" stroke="black"/>
</g>
<path d="M-187.195 2039.57L4496.21 2039.58V9695H49.7243L-187.195 2039.57Z" fill="#6DC5F3"/>
<path d="M-27.0367 1841.39C-93.4333 1892.68 -153.781 1957.79 -187.195 2039.57C-220.61 2121.36 -223.346 2221.24 -180.858 2297.62C-141.827 2367.97 -71.9733 2408.78 -4.5685 2444.35C209.358 2557.15 431.693 2649.44 659.974 2720.19C769.723 2754.17 892.722 2781.8 993.542 2722.89C1094.36 2663.97 1143.91 2531.54 1142.9 2406.4C1141.17 2184.08 1023.64 1815.03 814.515 1735.31C545.76 1633.36 208.16 1659.57 -27.0367 1841.39Z" fill="#6DC5F3"/>
<path fill-rule="evenodd" clip-rule="evenodd" d="M1676.78 2039.58C2160.2 1998.43 2234.31 1595.67 3035.32 1670.41C5477.4 2039.58 4566.51 2524.67 4496.21 3040.51C4438.56 3463.57 2986.25 4009.94 2680.55 4273.62C2402.69 4513.29 2026.45 4410.28 1676.78 4462.42C1221.56 4530.3 615.01 5040 358.854 4619.8C84.4749 4169.71 856.852 3708.66 887.367 3167.48C913.639 2701.59 254.358 2254.73 513.059 1885.1C761.114 1530.68 1271.81 2074.04 1676.78 2039.58Z" fill="#6DC5F3"/>
<path d="M-250.905 2111.67L4219.99 2111.68V5354.46L45.5168 4928.75L-250.905 2111.67Z" fill="#7DD2FF"/>
<path d="M-98.0142 1913.46C-161.398 1964.76 -219.007 2029.88 -250.905 2111.67C-282.804 2193.47 -285.416 2293.37 -244.856 2369.76C-207.596 2440.12 -140.912 2480.94 -76.5656 2516.52C127.654 2629.33 339.9 2721.63 557.823 2792.4C662.592 2826.39 780.01 2854.02 876.255 2795.1C972.499 2736.17 1019.8 2603.71 1018.83 2478.56C1017.18 2256.2 904.99 1887.09 705.352 1807.36C448.792 1705.4 126.51 1731.6 -98.0142 1913.46Z" fill="#7DD2FF"/>
<path fill-rule="evenodd" clip-rule="evenodd" d="M1528.49 2111.67C1989.98 2070.52 2060.72 1667.7 2825.38 1742.45C5156.66 2111.67 4287.1 2596.85 4219.99 3112.77C4164.95 3535.89 2778.54 4082.35 2486.72 4346.07C2221.46 4585.78 1862.3 4482.76 1528.49 4534.91C1093.93 4602.79 514.899 5112.57 270.367 4692.31C8.43741 4242.15 745.767 3781.02 774.898 3239.76C799.977 2773.79 170.612 2326.86 417.574 1957.17C654.373 1602.69 1141.9 2146.15 1528.49 2111.67Z" fill="#7DD2FF"/>
<path d="M4408.08 3040.9L-96.2953 3108.39V9160.25H4426.95L4408.08 3040.9Z" fill="#0196E7"/>
<path d="M4247.93 2842.72C4314.32 2894.01 4374.67 2959.12 4408.08 3040.9C4441.5 3122.68 4444.24 3222.57 4401.75 3298.95C4362.72 3369.3 4292.86 3410.11 4225.46 3445.68C4011.53 3558.48 3789.2 3650.76 3560.92 3721.52C3451.17 3755.5 3328.17 3783.13 3227.35 3724.22C3126.53 3665.3 3076.98 3532.86 3077.99 3407.73C3079.72 3185.41 3197.25 2816.36 3406.37 2736.64C3675.13 2634.69 4012.73 2660.89 4247.93 2842.72Z" fill="#0196E7"/>
<path fill-rule="evenodd" clip-rule="evenodd" d="M2576.22 2998.38C2092.8 2957.23 2018.69 2554.48 1217.68 2629.21C-1224.4 2998.38 -313.509 3483.48 -243.21 3999.32C-185.557 4422.37 1266.75 4968.74 1572.45 5232.42C1850.31 5472.1 2226.55 5369.09 2576.22 5421.23C3031.44 5489.1 3637.99 5998.8 3894.14 5578.61C4168.52 5128.52 3396.15 4667.46 3365.63 4126.29C3339.36 3660.39 3998.64 3213.53 3739.94 2843.9C3491.89 2489.48 2981.19 3032.85 2576.22 2998.38Z" fill="#0196E7"/>
<path d="M4408.37 3166.29L-96.0081 3233.78V9285.64H4427.24L4408.37 3166.29Z" fill="#950303"/>
<path d="M4248.21 2968.1C4314.61 3019.4 4374.96 3084.5 4408.37 3166.29C4441.79 3248.07 4444.52 3347.95 4402.03 3424.34C4363 3494.68 4293.15 3535.5 4225.74 3571.07C4011.82 3683.86 3789.48 3776.15 3561.2 3846.9C3451.45 3880.88 3328.45 3908.52 3227.63 3849.6C3126.82 3790.69 3077.27 3658.25 3078.28 3533.11C3080.01 3310.79 3197.53 2941.74 3406.66 2862.02C3675.42 2760.08 4013.02 2786.28 4248.21 2968.1Z" fill="#950303"/>
<path fill-rule="evenodd" clip-rule="evenodd" d="M2576.51 3123.77C2093.08 3082.62 2018.97 2679.86 1217.97 2754.6C-1224.12 3123.77 -313.222 3608.86 -242.923 4124.7C-185.27 4547.76 1267.04 5094.13 1572.73 5357.81C1850.6 5597.48 2226.84 5494.47 2576.51 5546.61C3031.72 5614.49 3638.28 6124.19 3894.43 5703.99C4168.81 5253.9 3396.43 4792.85 3365.92 4251.68C3339.65 3785.78 3998.93 3338.92 3740.23 2969.29C3492.17 2614.87 2981.47 3158.24 2576.51 3123.77Z" fill="#950303"/>
<path d="M3537.89 2738.68C3530.02 2725.35 3509.79 2717.64 3488.34 2730.15C3474.06 2739.04 3465.37 2757.34 3465.37 2771.67C3465.37 2792.11 3484.78 2802.38 3506.14 2802.95C3543.68 2803.51 3552.79 2763.13 3537.89 2738.68Z" fill="#950303"/>
<path d="M2250.78 2952.87C2228.4 2921.25 2170.84 2902.95 2109.84 2932.63C2069.22 2953.71 2044.49 2997.12 2044.49 3031.1C2044.49 3079.59 2099.71 3103.96 2160.46 3105.31C2267.26 3106.63 2293.14 3010.86 2250.78 2952.87Z" fill="#950303"/>
<path d="M242.174 2934.77C215.951 2885.71 148.505 2857.33 77.0134 2903.37C29.4201 2936.08 0.431885 3003.42 0.431885 3056.13C0.431885 3131.35 65.1491 3169.16 136.337 3171.25C261.489 3173.31 291.824 3024.74 242.174 2934.77Z" fill="#950303"/>
<path d="M747.959 2961.08C738.869 2947.58 715.487 2939.76 690.704 2952.44C674.205 2961.44 664.155 2979.97 664.155 2994.49C664.155 3015.19 686.591 3025.6 711.269 3026.17C754.655 3026.74 765.171 2985.84 747.959 2961.08Z" fill="#0196E7"/>
<path d="M2611.64 2871.26C2594.77 2839.12 2551.38 2820.53 2505.39 2850.69C2474.77 2872.11 2456.12 2916.22 2456.12 2950.76C2456.12 3000.03 2497.75 3024.79 2543.55 3026.16C2624.07 3027.51 2643.58 2930.19 2611.64 2871.26Z" fill="#7DD2FF"/>
<path d="M651.071 2809.93C635.949 2782.75 597.055 2767.02 555.828 2792.53C528.383 2810.65 511.666 2847.96 511.666 2877.16C511.666 2918.83 548.987 2939.78 590.038 2940.94C662.209 2942.08 679.702 2859.77 651.071 2809.93Z" fill="#0196E7"/>
<path d="M1752.35 2308.97C1748.86 2302.48 1739.86 2298.72 1730.33 2304.81C1723.98 2309.14 1720.12 2318.06 1720.12 2325.04C1720.12 2335 1728.75 2340 1738.24 2340.28C1754.93 2340.55 1758.97 2320.88 1752.35 2308.97Z" fill="#BDE8FF"/>
<path d="M202.645 2324.21C191.322 2282.57 148.309 2249.4 91.9023 2271.8C54.0598 2288.26 24.2751 2334.13 16.7867 2373.99C6.10232 2430.86 45.8736 2470.68 95.2309 2484.62C182.234 2507.91 224.497 2400.85 202.645 2324.21Z" fill="#BDE8FF"/>
<path d="M476.951 2108.27C474.705 2100.67 466.409 2094.53 455.656 2098.46C448.444 2101.36 442.83 2109.62 441.472 2116.85C439.535 2127.16 447.223 2134.5 456.696 2137.15C473.393 2141.61 481.279 2122.25 476.951 2108.27Z" fill="#BDE8FF"/>
<path d="M3602.12 2513.67C3595.18 2498.71 3572.59 2485.43 3544.96 2490.97C3526.47 2495.19 3512.91 2509.97 3510.36 2523.56C3506.72 2542.94 3527.88 2558.4 3553.07 2565.24C3597.43 2576.84 3615.4 2541.24 3602.12 2513.67Z" fill="#BDE8FF"/>
<path d="M2500.03 2546.05C2487.62 2523.49 2455.69 2510.43 2421.85 2531.61C2399.33 2546.65 2385.61 2577.62 2385.61 2601.87C2385.61 2636.46 2416.24 2653.85 2449.93 2654.81C2509.17 2655.76 2523.53 2587.43 2500.03 2546.05Z" fill="#BDE8FF"/>
<path d="M709.281 2360.4C704.385 2352.37 691.796 2347.72 678.45 2355.26C669.566 2360.62 664.155 2371.64 664.155 2380.28C664.155 2392.6 676.236 2398.79 689.524 2399.13C712.886 2399.47 718.548 2375.14 709.281 2360.4Z" fill="#BDE8FF"/>
<path d="M2192.72 2670.07C2186.77 2656.39 2171.48 2648.48 2155.28 2661.32C2144.49 2670.43 2137.92 2689.2 2137.92 2703.9C2137.92 2724.86 2152.59 2735.4 2168.73 2735.99C2197.09 2736.56 2203.97 2695.15 2192.72 2670.07Z" fill="#BDE8FF"/>
<path d="M3305.77 89C3169.08 89 3048.06 133.074 2973.82 200.774C2963.44 200.187 2952.94 199.886 2942.33 199.886C2811.33 199.886 2696.58 245.593 2632.99 314.061C2615.89 311.899 2598.24 310.767 2580.19 310.767C2426.78 310.767 2302.41 392.49 2302.41 493.299C2302.41 594.108 2426.78 675.829 2580.19 675.829V675.833H3779.54C3973.09 675.833 4130 572.725 4130 445.536C4130 318.346 3973.09 215.239 3779.54 215.239C3739.05 215.239 3700.17 219.751 3663.99 228.051C3594.37 145.152 3460.05 89.0001 3305.77 89Z" fill="#F9FDFF"/>
<path d="M2258.72 547.879C2255.09 540.15 2245.76 535.678 2235.87 542.933C2229.28 548.085 2225.27 558.695 2225.27 567.001C2225.27 578.851 2234.22 584.808 2244.07 585.138C2261.39 585.462 2265.58 562.054 2258.72 547.879Z" fill="#F9FDFF"/>
<path d="M2399.05 650.703C2396.76 645.491 2390.88 642.474 2384.65 647.367C2380.49 650.842 2377.97 657.997 2377.97 663.599C2377.97 671.591 2383.61 675.609 2389.82 675.831C2400.74 676.05 2403.38 660.263 2399.05 650.703Z" fill="#F9FDFF"/>
<path d="M157.138 748.405C153.037 739.777 142.489 734.785 131.308 742.883C123.865 748.635 119.331 760.477 119.331 769.749C119.331 782.978 129.453 789.627 140.586 789.995C160.159 790.358 164.903 764.228 157.138 748.405Z" fill="#E9F7FF"/>
<path d="M108.468 755.932C106.023 751.079 99.7344 748.271 93.069 752.826C88.6316 756.062 85.929 762.723 85.929 767.939C85.929 775.38 91.9628 779.12 98.6 779.327C110.268 779.531 113.097 764.833 108.468 755.932Z" fill="#E9F7FF"/>
<path d="M2297.51 1200.36C2381.37 1200.36 2455.63 1228.65 2501.18 1272.1C2507.55 1271.72 2514 1271.53 2520.51 1271.53C2600.88 1271.53 2671.29 1300.86 2710.31 1344.81C2720.8 1343.42 2731.63 1342.69 2742.71 1342.69C2836.83 1342.69 2913.14 1395.14 2913.14 1459.85C2913.14 1524.55 2836.84 1577 2742.71 1577V1577H2006.81L2004.03 1576.99C1886.55 1575.96 1791.78 1510.19 1791.78 1429.19C1791.78 1347.56 1888.05 1281.38 2006.81 1281.38C2031.65 1281.38 2055.51 1284.28 2077.71 1289.61C2120.43 1236.4 2202.84 1200.36 2297.51 1200.36Z" fill="url(#paint1_linear_5_31)"/>
<path d="M2930.27 1468.19C2926.17 1459.56 2915.62 1454.57 2904.44 1462.66C2897 1468.42 2892.46 1480.26 2892.46 1489.53C2892.46 1502.76 2902.58 1509.41 2913.72 1509.78C2933.29 1510.14 2938.04 1484.01 2930.27 1468.19Z" fill="#F9FDFF"/>
<path d="M1906.73 1535.41C1902.63 1526.78 1892.08 1521.78 1880.9 1529.88C1873.45 1535.64 1868.92 1547.48 1868.92 1556.75C1868.92 1569.98 1879.04 1576.63 1890.17 1577C1909.75 1577.36 1914.49 1551.23 1906.73 1535.41Z" fill="#F9FDFF"/>
<path d="M1853.42 1556.2C1851.13 1551.89 1845.25 1549.39 1839.02 1553.44C1834.86 1556.32 1832.34 1562.24 1832.34 1566.87C1832.34 1573.49 1837.98 1576.81 1844.19 1577C1855.11 1577.18 1857.75 1564.11 1853.42 1556.2Z" fill="#F9FDFF"/>
<path d="M2961.33 1489.58C2959.13 1484.73 2953.45 1481.92 2947.43 1486.48C2943.42 1489.71 2940.98 1496.38 2940.98 1501.59C2940.98 1509.03 2946.43 1512.77 2952.42 1512.98C2962.96 1513.18 2965.52 1498.48 2961.33 1489.58Z" fill="#F9FDFF"/>
<path d="M401.1 467.236C513.22 467.236 612.489 523.891 673.386 610.917C681.901 610.161 690.518 609.775 699.223 609.775C806.678 609.775 900.806 668.529 952.968 756.541C966.99 753.763 981.469 752.308 996.279 752.308C1122.12 752.308 1224.13 857.358 1224.13 986.944C1224.13 1116.53 1122.12 1221.58 996.279 1221.58V1221.58H12.4748V1221.58C-146.293 1221.58 -275 1089.04 -275 925.548C-275 762.051 -146.293 629.511 12.4756 629.511C45.6862 629.511 77.5813 635.311 107.258 645.98C164.366 539.416 274.547 467.236 401.1 467.236Z" fill="#F9FDFF"/>
<path d="M1273.31 1103.65C1252.24 1016.16 1116.6 1037.28 1095.96 1051.62C1082.22 1061.8 920.328 1194.71 920.328 1211.13C920.328 1234.56 1131.87 1210.48 1152.43 1211.13C1188.56 1211.77 1273.31 1161.26 1273.31 1103.65Z" fill="#F9FDFF"/>
<path d="M2354.09 484.407C2346.51 469.129 2327.04 460.288 2306.4 474.629C2292.66 484.815 2284.29 505.786 2284.29 522.205C2284.29 545.631 2302.97 557.406 2323.53 558.057C2359.66 558.699 2368.42 512.427 2354.09 484.407Z" fill="#F9FDFF"/>
<path d="M1245.21 1185.78C1242.93 1180.57 1237.04 1177.56 1230.81 1182.45C1226.66 1185.92 1224.13 1193.08 1224.13 1198.68C1224.13 1206.67 1229.77 1210.69 1235.98 1210.91C1246.9 1211.13 1249.54 1195.34 1245.21 1185.78Z" fill="#F9FDFF"/>
</g>
<defs>
<filter id="filter0_d_5_31" x="-16.8984" y="-115" width="4454.48" height="5030.45" filterUnits="userSpaceOnUse" color-interpolation-filters="sRGB">
<feFlood flood-opacity="0" result="BackgroundImageFix"/>
<feColorMatrix in="SourceAlpha" type="matrix" values="0 0 0 0 0 0 0 0 0 0 0 0 0 0 0 0 0 0 127 0" result="hardAlpha"/>
<feOffset dy="4"/>
<feGaussianBlur stdDeviation="2"/>
<feComposite in2="hardAlpha" operator="out"/>
<feColorMatrix type="matrix" values="0 0 0 0 0 0 0 0 0 0 0 0 0 0 0 0 0 0 0.25 0"/>
<feBlend mode="normal" in2="BackgroundImageFix" result="effect1_dropShadow_5_31"/>
<feBlend mode="normal" in="SourceGraphic" in2="effect1_dropShadow_5_31" result="shape"/>
</filter>
<linearGradient id="paint0_linear_5_31" x1="2210.34" y1="-115" x2="2210.34" y2="10156.2" gradientUnits="userSpaceOnUse">
<stop stop-color="#D4F0FF"/>
<stop offset="1" stop-color="#94DAFF"/>
</linearGradient>
<linearGradient id="paint1_linear_5_31" x1="1791.78" y1="1388.68" x2="2913.14" y2="1388.68" gradientUnits="userSpaceOnUse">
<stop stop-color="#E9F7FF"/>
<stop offset="1" stop-color="white"/>
</linearGradient>
<clipPath id="clip0_5_31">
<rect width="3736" height="9160" fill="white"/>
</clipPath>
</defs>
</svg>
