<svg width="5774" height="5501" viewBox="0 0 5774 5501" fill="none" xmlns="http://www.w3.org/2000/svg">
<g clip-path="url(#clip0_23_46)">
<rect width="5774" height="5501" fill="white"/>
<g filter="url(#filter0_d_23_46)">
<path d="M-18.9912 0H5989.94V5938.35H-18.9912V0Z" fill="url(#paint0_linear_23_46)"/>
<path d="M5989.44 0.5V5937.85H-18.4912V0.5H5989.44Z" stroke="black"/>
</g>
<path d="M-254.534 2547.49L6074.57 2547.49V11599H65.6367L-254.534 2547.49Z" fill="#6DC5F3"/>
<path d="M-38.0973 2313.16C-127.825 2373.81 -209.378 2450.79 -254.534 2547.49C-299.69 2644.18 -303.388 2762.28 -245.97 2852.59C-193.223 2935.77 -98.8242 2984.03 -7.73398 3026.08C281.364 3159.45 581.825 3268.56 890.322 3352.22C1038.64 3392.4 1204.86 3425.07 1341.1 3355.41C1477.35 3285.75 1544.3 3129.16 1542.94 2981.21C1540.61 2718.35 1381.78 2281.99 1099.17 2187.74C735.975 2067.2 279.745 2098.18 -38.0973 2313.16Z" fill="#6DC5F3"/>
<path fill-rule="evenodd" clip-rule="evenodd" d="M2264.42 2547.49C2917.72 2498.83 3017.87 2022.63 4100.34 2111C7400.55 2547.49 6169.58 3121.05 6074.57 3730.96C5996.66 4231.16 4034.03 4877.17 3620.91 5188.94C3245.41 5472.31 2736.97 5350.52 2264.42 5412.17C1649.25 5492.42 829.558 6095.07 483.392 5598.25C112.598 5066.08 1156.38 4520.95 1197.62 3881.08C1233.12 3330.22 342.176 2801.88 691.782 2364.84C1027 1945.78 1717.16 2588.24 2264.42 2547.49Z" fill="#6DC5F3"/>
<path d="M-340.63 2632.73L5701.29 2632.74V6466.88L59.9521 5963.54L-340.63 2632.73Z" fill="#7DD2FF"/>
<path d="M-134.014 2398.37C-219.671 2459.03 -297.523 2536.02 -340.63 2632.73C-383.737 2729.44 -387.267 2847.56 -332.455 2937.89C-282.101 3021.08 -191.986 3069.34 -105.029 3111.41C170.952 3244.79 457.779 3353.93 752.277 3437.6C893.861 3477.78 1052.54 3510.46 1182.6 3440.79C1312.67 3371.12 1376.58 3214.5 1375.28 3066.52C1373.05 2803.62 1221.44 2367.2 951.647 2272.93C604.934 2152.37 169.406 2183.35 -134.014 2398.37Z" fill="#7DD2FF"/>
<path fill-rule="evenodd" clip-rule="evenodd" d="M2064.02 2632.73C2687.68 2584.07 2783.28 2107.8 3816.64 2196.17C6967.1 2632.73 5791.98 3206.38 5701.29 3816.39C5626.91 4316.67 3753.34 4962.79 3358.96 5274.6C3000.5 5558.03 2515.13 5436.21 2064.02 5497.87C1476.77 5578.14 694.271 6180.88 363.812 5683.98C9.84345 5151.73 1006.26 4606.51 1045.63 3966.54C1079.52 3415.6 229.004 2887.16 562.746 2450.06C882.755 2030.94 1541.59 2673.5 2064.02 2632.73Z" fill="#7DD2FF"/>
<path d="M6031.14 4521.46L-56.0335 4601.26V11756.7H6056.64L6031.14 4521.46Z" fill="#0196E7"/>
<path d="M5814.7 4287.14C5904.43 4347.78 5985.98 4424.77 6031.14 4521.46C6076.3 4618.16 6079.99 4736.26 6022.58 4826.57C5969.83 4909.75 5875.43 4958 5784.34 5000.06C5495.24 5133.42 5194.78 5242.54 4886.28 5326.2C4737.97 5366.38 4571.75 5399.05 4435.5 5329.39C4299.26 5259.73 4232.3 5103.14 4233.66 4955.18C4236 4692.32 4394.82 4255.97 4677.44 4161.71C5040.63 4041.17 5496.86 4072.15 5814.7 4287.14Z" fill="#0196E7"/>
<path fill-rule="evenodd" clip-rule="evenodd" d="M3555.58 4471.19C2902.28 4422.54 2802.13 3946.33 1719.66 4034.7C-1580.55 4471.19 -349.575 5044.75 -254.573 5654.66C-176.661 6154.86 1785.97 6800.87 2199.09 7112.64C2574.59 7396.01 3083.03 7274.22 3555.58 7335.87C4170.75 7416.12 4990.44 8018.77 5336.61 7521.95C5707.4 6989.78 4663.62 6444.65 4622.38 5804.78C4586.88 5253.92 5477.82 4725.58 5128.22 4288.54C4793 3869.48 4102.84 4511.94 3555.58 4471.19Z" fill="#0196E7"/>
<path d="M6031.53 4669.71L-55.6454 4749.51V11905H6057.02L6031.53 4669.71Z" fill="#950303"/>
<path d="M5815.09 4435.39C5904.82 4496.03 5986.37 4573.02 6031.53 4669.71C6076.68 4766.41 6080.38 4884.51 6022.96 4974.82C5970.22 5058 5875.82 5106.25 5784.73 5148.31C5495.63 5281.67 5195.17 5390.79 4886.67 5474.45C4738.36 5514.63 4572.14 5547.3 4435.89 5477.64C4299.65 5407.98 4232.69 5251.39 4234.05 5103.43C4236.39 4840.57 4395.21 4404.22 4677.83 4309.97C5041.02 4189.42 5497.25 4220.4 5815.09 4435.39Z" fill="#950303"/>
<path fill-rule="evenodd" clip-rule="evenodd" d="M3555.97 4619.44C2902.67 4570.79 2802.52 4094.58 1720.05 4182.95C-1580.16 4619.44 -349.187 5193 -254.185 5802.91C-176.273 6303.11 1786.36 6949.12 2199.48 7260.89C2574.98 7544.27 3083.42 7422.47 3555.97 7484.12C4171.14 7564.37 4990.83 8167.02 5336.99 7670.2C5707.79 7138.03 4664.01 6592.9 4622.77 5953.04C4587.26 5402.18 5478.21 4873.83 5128.6 4436.79C4793.39 4017.74 4103.23 4660.19 3555.97 4619.44Z" fill="#950303"/>
<path d="M4465.82 241.202C4281.11 241.202 4117.56 293.313 4017.24 373.359C4003.21 372.665 3989.01 372.309 3974.67 372.309C3797.64 372.309 3642.57 426.351 3556.63 507.305C3533.53 504.749 3509.68 503.411 3485.28 503.411C3277.96 503.411 3109.9 600.036 3109.9 719.23C3109.9 838.423 3277.96 935.046 3485.28 935.046V935.051H5106.07C5367.64 935.051 5579.68 813.14 5579.68 662.756C5579.68 512.372 5367.64 390.462 5106.07 390.462C5051.36 390.462 4998.81 395.797 4949.92 405.61C4855.84 307.593 4674.31 241.202 4465.82 241.202Z" fill="#F9FDFF"/>
<path d="M3050.84 783.763C3045.94 774.625 3033.33 769.337 3019.97 777.915C3011.07 784.007 3005.65 796.551 3005.65 806.371C3005.65 820.383 3017.75 827.426 3031.06 827.816C3054.46 828.2 3060.13 800.523 3050.84 783.763Z" fill="#F9FDFF"/>
<path d="M3240.49 905.338C3237.4 899.175 3229.45 895.609 3221.03 901.394C3215.42 905.502 3212 913.962 3212 920.586C3212 930.036 3219.63 934.785 3228.02 935.048C3242.77 935.307 3246.35 916.641 3240.49 905.338Z" fill="#F9FDFF"/>
<path d="M210.795 1020.86C205.253 1010.66 190.998 1004.75 175.888 1014.33C165.83 1021.13 159.703 1035.13 159.703 1046.09C159.703 1061.73 173.381 1069.6 188.426 1070.03C214.877 1070.46 221.288 1039.56 210.795 1020.86Z" fill="#E9F7FF"/>
<path d="M145.022 1029.76C141.718 1024.02 133.22 1020.7 124.212 1026.08C118.216 1029.91 114.563 1037.79 114.563 1043.95C114.563 1052.75 122.718 1057.17 131.687 1057.42C147.456 1057.66 151.278 1040.28 145.022 1029.76Z" fill="#E9F7FF"/>
<path d="M3103.27 1555.23C3216.61 1555.23 3316.95 1588.68 3378.51 1640.05C3387.12 1639.61 3395.83 1639.38 3404.63 1639.38C3513.25 1639.38 3608.4 1674.06 3661.13 1726.02C3675.3 1724.38 3689.94 1723.52 3704.91 1723.52C3832.11 1723.52 3935.23 1785.54 3935.23 1862.04C3935.23 1938.54 3832.11 2000.55 3704.91 2000.55V2000.56H2710.42L2706.67 2000.54C2547.91 1999.33 2419.83 1921.56 2419.83 1825.79C2419.83 1729.27 2549.93 1651.03 2710.42 1651.03C2744 1651.03 2776.24 1654.45 2806.24 1660.75C2863.96 1597.84 2975.34 1555.23 3103.27 1555.23Z" fill="url(#paint1_linear_23_46)"/>
<path d="M3958.38 1871.9C3952.84 1861.7 3938.58 1855.79 3923.47 1865.37C3913.41 1872.17 3907.29 1886.17 3907.29 1897.14C3907.29 1912.78 3920.96 1920.64 3936.01 1921.07C3962.46 1921.5 3968.87 1890.61 3958.38 1871.9Z" fill="#F9FDFF"/>
<path d="M2575.17 1951.38C2569.63 1941.17 2555.38 1935.27 2540.27 1944.85C2530.21 1951.65 2524.08 1965.65 2524.08 1976.61C2524.08 1992.25 2537.76 2000.12 2552.8 2000.55C2579.25 2000.98 2585.67 1970.08 2575.17 1951.38Z" fill="#F9FDFF"/>
<path d="M2503.13 1975.97C2500.04 1970.86 2492.09 1967.91 2483.67 1972.7C2478.06 1976.1 2474.64 1983.1 2474.64 1988.58C2474.64 1996.4 2482.27 2000.34 2490.66 2000.55C2505.41 2000.77 2508.99 1985.32 2503.13 1975.97Z" fill="#F9FDFF"/>
<path d="M4000.36 1897.2C3997.37 1891.46 3989.7 1888.14 3981.56 1893.53C3976.15 1897.35 3972.85 1905.23 3972.85 1911.39C3972.85 1920.19 3980.21 1924.61 3988.31 1924.86C4002.56 1925.1 4006.01 1907.72 4000.36 1897.2Z" fill="#F9FDFF"/>
<path d="M540.484 688.414C692.001 688.414 826.153 755.4 908.448 858.296C919.955 857.403 931.6 856.946 943.364 856.946C1088.58 856.946 1215.78 926.414 1286.27 1030.48C1305.22 1027.19 1324.79 1025.47 1344.8 1025.47C1514.86 1025.47 1652.72 1149.68 1652.72 1302.9C1652.72 1456.11 1514.86 1580.32 1344.8 1580.32V1580.33H15.2991V1580.32C-199.258 1580.32 -373.191 1423.62 -373.191 1230.3C-373.191 1036.99 -199.258 880.281 15.3002 880.281C60.1807 880.281 103.283 887.139 143.389 899.753C220.563 773.757 369.461 688.414 540.484 688.414Z" fill="#F9FDFF"/>
<path d="M1719.18 1440.88C1690.7 1337.44 1507.4 1362.41 1479.51 1379.36C1460.94 1391.41 1242.16 1548.55 1242.16 1567.96C1242.16 1595.66 1528.04 1567.19 1555.82 1567.96C1604.65 1568.72 1719.18 1509.01 1719.18 1440.88Z" fill="#F9FDFF"/>
<path d="M3179.73 708.716C3169.5 690.652 3143.18 680.199 3115.28 697.155C3096.71 709.198 3085.4 733.994 3085.4 753.407C3085.4 781.105 3110.66 795.027 3138.43 795.797C3187.26 796.556 3199.1 741.846 3179.73 708.716Z" fill="#F9FDFF"/>
<path d="M1681.21 1538C1678.12 1531.83 1670.17 1528.27 1661.74 1534.05C1656.13 1538.16 1652.72 1546.62 1652.72 1553.24C1652.72 1562.69 1660.35 1567.44 1668.74 1567.71C1683.49 1567.97 1687.06 1549.3 1681.21 1538Z" fill="#F9FDFF"/>
<path d="M4855.17 4164.13C4844.54 4148.37 4817.19 4139.25 4788.21 4154.04C4768.91 4164.55 4757.16 4186.19 4757.16 4203.13C4757.16 4227.3 4783.4 4239.45 4812.26 4240.12C4863 4240.78 4875.3 4193.04 4855.17 4164.13Z" fill="#950303"/>
<path d="M3115.77 4417.38C3085.53 4379.99 3007.76 4358.36 2925.31 4393.45C2870.43 4418.38 2837 4469.7 2837 4509.88C2837 4567.2 2911.63 4596.02 2993.72 4597.61C3138.05 4599.18 3173.03 4485.95 3115.77 4417.38Z" fill="#950303"/>
<path d="M401.371 4395.98C365.933 4337.98 274.786 4304.41 178.174 4358.86C113.857 4397.52 74.6826 4477.14 74.6826 4539.47C74.6826 4628.41 162.141 4673.11 258.343 4675.58C427.472 4678.02 468.467 4502.35 401.371 4395.98Z" fill="#950303"/>
<path d="M5634.25 4244.26C5609.91 4274.98 5547.33 4292.76 5480.99 4263.92C5436.82 4243.45 5409.92 4201.28 5409.92 4168.27C5409.92 4121.17 5469.98 4097.49 5536.04 4096.18C5652.17 4094.89 5680.32 4187.93 5634.25 4244.26Z" fill="#7DD2FF"/>
<path d="M1084.88 4427.08C1072.6 4411.12 1041 4401.88 1007.51 4416.87C985.212 4427.51 971.632 4449.42 971.632 4466.58C971.632 4491.06 1001.95 4503.37 1035.3 4504.05C1093.93 4504.72 1108.14 4456.36 1084.88 4427.08Z" fill="#0196E7"/>
<path d="M3603.45 4320.88C3580.65 4282.89 3522.01 4260.9 3459.86 4296.57C3418.48 4321.9 3393.28 4374.05 3393.28 4414.88C3393.28 4473.14 3449.54 4502.42 3511.43 4504.04C3620.24 4505.63 3646.61 4390.56 3603.45 4320.88Z" fill="#7DD2FF"/>
<path d="M953.951 4248.37C933.515 4216.23 880.953 4197.64 825.24 4227.8C788.151 4249.22 765.56 4293.33 765.56 4327.86C765.56 4377.13 815.994 4401.9 871.471 4403.27C969.002 4404.62 992.642 4307.3 953.951 4248.37Z" fill="#0196E7"/>
<path d="M5384.77 4172.59C5379.1 4164.3 5364.51 4159.51 5349.05 4167.29C5338.76 4172.81 5332.5 4184.18 5332.5 4193.09C5332.5 4205.79 5346.49 4212.18 5361.88 4212.53C5388.94 4212.88 5395.5 4187.78 5384.77 4172.59Z" fill="#7DD2FF"/>
<path d="M2442.21 3656.06C2437.48 3648.38 2425.33 3643.93 2412.45 3651.14C2403.87 3656.26 2398.65 3666.8 2398.65 3675.06C2398.65 3686.83 2410.31 3692.75 2423.14 3693.08C2445.69 3693.4 2451.16 3670.14 2442.21 3656.06Z" fill="#BDE8FF"/>
<path d="M347.952 3674.08C332.65 3624.84 274.523 3585.62 198.295 3612.1C147.155 3631.57 106.905 3685.81 96.7848 3732.93C82.3459 3800.17 136.092 3847.25 202.793 3863.74C320.368 3891.28 377.482 3764.7 347.952 3674.08Z" fill="#BDE8FF"/>
<path d="M718.646 3418.75C715.611 3409.77 704.4 3402.51 689.868 3407.16C680.122 3410.58 672.535 3420.35 670.701 3428.9C668.083 3441.09 678.472 3449.76 691.274 3452.91C713.837 3458.17 724.495 3435.29 718.646 3418.75Z" fill="#BDE8FF"/>
<path d="M4941.97 3898.08C4932.59 3880.4 4902.06 3864.69 4864.73 3871.25C4839.74 3876.23 4821.41 3893.72 4817.97 3909.78C4813.04 3932.69 4841.64 3950.98 4875.68 3959.06C4935.64 3972.77 4959.92 3930.68 4941.97 3898.08Z" fill="#BDE8FF"/>
<path d="M3452.61 3936.37C3435.84 3909.69 3392.7 3894.25 3346.97 3919.29C3316.52 3937.08 3297.98 3973.7 3297.98 4002.36C3297.98 4043.27 3339.38 4063.83 3384.91 4064.97C3464.97 4066.09 3484.37 3985.29 3452.61 3936.37Z" fill="#BDE8FF"/>
<path d="M1032.61 3716.87C1026 3707.37 1008.98 3701.87 990.95 3710.79C978.944 3717.12 971.632 3730.16 971.632 3740.37C971.632 3754.93 987.957 3762.25 1005.92 3762.66C1037.49 3763.06 1045.14 3734.29 1032.61 3716.87Z" fill="#BDE8FF"/>
<path d="M3037.31 4083C3029.28 4066.84 3008.62 4057.48 2986.72 4072.66C2972.14 4083.44 2963.26 4105.63 2963.26 4123C2963.26 4147.79 2983.09 4160.25 3004.89 4160.94C3043.23 4161.62 3052.52 4112.66 3037.31 4083Z" fill="#BDE8FF"/>
<path d="M5724.77 2956.92C5735.46 2927.28 5784.57 2905.1 5853.49 2923.7C5899.82 2937.22 5938.54 2971.67 5950.2 3000.82C5966.85 3042.42 5922.06 3069.53 5864.05 3077.52C5761.7 3090.68 5703.9 3011.43 5724.77 2956.92Z" fill="#BDE8FF"/>
<path d="M5101.5 2583.9C5104.69 2578.83 5116.46 2574.74 5131.73 2577.36C5141.96 2579.29 5149.93 2584.8 5151.86 2589.61C5154.61 2596.48 5143.7 2601.37 5130.25 2603.14C5106.55 2606.11 5095.36 2593.21 5101.5 2583.9Z" fill="#BDE8FF"/>
<path d="M2223.44 2876.88C2233.48 2860.48 2259.3 2850.99 2286.66 2866.38C2304.88 2877.32 2315.98 2899.83 2315.98 2917.45C2315.98 2942.6 2291.21 2955.24 2263.96 2955.94C2216.05 2956.63 2204.44 2906.96 2223.44 2876.88Z" fill="#BDE8FF"/>
<path d="M4771.73 2752.02C4778.73 2746.78 4796.72 2743.74 4815.79 2748.66C4828.49 2752.16 4836.23 2759.35 4836.23 2764.99C4836.23 2773.02 4818.96 2777.06 4799.97 2777.29C4766.58 2777.51 4758.49 2761.63 4771.73 2752.02Z" fill="#BDE8FF"/>
<path d="M3688.27 3441.89C3696.79 3432.76 3718.69 3427.48 3741.91 3436.05C3757.37 3442.14 3766.78 3454.67 3766.78 3464.48C3766.78 3478.48 3745.76 3485.52 3722.64 3485.91C3682 3486.29 3672.14 3458.64 3688.27 3441.89Z" fill="#BDE8FF"/>
<path d="M5353.9 3388.72C5345.87 3374.17 5325.21 3365.75 5303.31 3379.41C5288.73 3389.11 5279.85 3409.08 5279.85 3424.72C5279.85 3447.03 5299.68 3458.24 5321.48 3458.86C5359.82 3459.47 5369.11 3415.4 5353.9 3388.72Z" fill="#BDE8FF"/>
</g>
<defs>
<filter id="filter0_d_23_46" x="-22.9912" y="0" width="6016.93" height="5946.35" filterUnits="userSpaceOnUse" color-interpolation-filters="sRGB">
<feFlood flood-opacity="0" result="BackgroundImageFix"/>
<feColorMatrix in="SourceAlpha" type="matrix" values="0 0 0 0 0 0 0 0 0 0 0 0 0 0 0 0 0 0 127 0" result="hardAlpha"/>
<feOffset dy="4"/>
<feGaussianBlur stdDeviation="2"/>
<feComposite in2="hardAlpha" operator="out"/>
<feColorMatrix type="matrix" values="0 0 0 0 0 0 0 0 0 0 0 0 0 0 0 0 0 0 0.25 0"/>
<feBlend mode="normal" in2="BackgroundImageFix" result="effect1_dropShadow_23_46"/>
<feBlend mode="normal" in="SourceGraphic" in2="effect1_dropShadow_23_46" result="shape"/>
</filter>
<linearGradient id="paint0_linear_23_46" x1="2985.47" y1="0" x2="2985.47" y2="12144.2" gradientUnits="userSpaceOnUse">
<stop stop-color="#D4F0FF"/>
<stop offset="1" stop-color="#94DAFF"/>
</linearGradient>
<linearGradient id="paint1_linear_23_46" x1="2419.83" y1="1777.89" x2="3935.23" y2="1777.89" gradientUnits="userSpaceOnUse">
<stop stop-color="#E9F7FF"/>
<stop offset="1" stop-color="white"/>
</linearGradient>
<clipPath id="clip0_23_46">
<rect width="5774" height="5501" fill="white"/>
</clipPath>
</defs>
</svg>
