<?xml version="1.0" encoding="UTF-8"?>
<svg version="1.1" xmlns="http://www.w3.org/2000/svg" width="1570" height="554">
<path d="M0 0 C518.1 0 1036.2 0 1570 0 C1570 182.82 1570 365.64 1570 554 C1051.9 554 533.8 554 0 554 C0 371.18 0 188.36 0 0 Z " fill="#E0F1FB" transform="translate(0,0)"/>
<path d="M0 0 C9.58095968 -0.09352502 19.16175732 -0.1641766 28.74307728 -0.20724869 C33.19420035 -0.22794247 37.64500651 -0.25591759 42.09594727 -0.30175781 C46.40782884 -0.34587753 50.71940963 -0.36927311 55.03149986 -0.37950897 C56.65979422 -0.38678387 58.28807599 -0.40098101 59.91623878 -0.42292023 C71.396992 -0.57117749 81.84358254 0.8196116 92.98150158 3.63901138 C95.47856413 4.14670584 95.47856413 4.14670584 100 4 C100 117.52 100 231.04 100 348 C-418.1 348 -936.2 348 -1470 348 C-1470 243.06 -1470 138.12 -1470 30 C-1465.91171239 27.95585619 -1460.95455761 28.86115526 -1456.5625 29.5 C-1451.45222373 31.65169527 -1447.12255666 34.35750231 -1444 39 C-1443.55969168 41.04612664 -1443.1929832 43.10877186 -1442.88012695 45.17822266 C-1442.71180862 46.26624176 -1442.5434903 47.35426086 -1442.37007141 48.47525024 C-1442.24794785 49.30841766 -1442.12582428 50.14158508 -1442 51 C-1441.32507507 50.99555878 -1440.65015015 50.99111755 -1439.95477295 50.98654175 C-1432.88100315 50.94202879 -1425.80727365 50.91201829 -1418.73339844 50.89013672 C-1416.09926739 50.88012715 -1413.46514732 50.86651543 -1410.83105469 50.84912109 C-1407.0279671 50.82465005 -1403.22502742 50.81346607 -1399.421875 50.8046875 C-1398.25887878 50.79436493 -1397.09588257 50.78404236 -1395.89764404 50.77340698 C-1385.03618363 50.77194236 -1374.77534074 52.65134914 -1364.25 55.1875 C-1363.36223877 55.40035645 -1362.47447754 55.61321289 -1361.55981445 55.83251953 C-1351.64343685 58.26049191 -1341.8719229 61.16151384 -1332.09228516 64.08398438 C-1328.94523965 65.01622145 -1325.79238793 65.92553887 -1322.63671875 66.828125 C-1311.95320582 69.888235 -1301.38043365 73.01076704 -1291 77 C-1290.14019531 77.32484375 -1289.28039063 77.6496875 -1288.39453125 77.984375 C-1281.45570223 80.67606702 -1274.73279876 83.83410716 -1268 87 C-1269.10915112 89.27617099 -1270.24142142 91.37141757 -1271.625 93.5 C-1274.63546949 101.16301325 -1273.55605452 110.27445074 -1271 118 C-1269.37154172 121.26480007 -1267.43080925 124.24025445 -1265.375 127.25 C-1264.87871094 128.02601563 -1264.38242188 128.80203125 -1263.87109375 129.6015625 C-1259.10794134 136.70387118 -1252.94085221 140.99408263 -1244.75390625 143.5 C-1230.88202476 146.01858274 -1218.85254348 143.48483455 -1207 136 C-1202.55740462 132.3300299 -1199.9144048 127.88801927 -1197 123 C-1196.34 122.01 -1195.68 121.02 -1195 120 C-1191.88452559 120.67883043 -1189.14862279 121.74106902 -1186.25 123.0625 C-1185.45078125 123.42472656 -1184.6515625 123.78695312 -1183.828125 124.16015625 C-1183.22484375 124.43730469 -1182.6215625 124.71445312 -1182 125 C-1182 125.66 -1182 126.32 -1182 127 C-1180.7934375 127.37125 -1180.7934375 127.37125 -1179.5625 127.75 C-1176.91980413 128.67726171 -1174.4747548 129.65622336 -1171.9375 130.8125 C-1168.1554842 132.53101731 -1164.32560417 134.03746081 -1160.4375 135.5 C-1156.14804865 137.12789423 -1152.02084883 138.84191508 -1147.9765625 141.0078125 C-1142.70691001 143.65305308 -1137.17394345 145.73140541 -1131.6875 147.875 C-1126.42808524 149.94849775 -1121.39985347 152.24987011 -1116.37890625 154.85546875 C-1112.98638216 156.48766835 -1109.46957408 157.6650426 -1105.91796875 158.90234375 C-1102.69345791 160.11531235 -1099.61499948 161.52913042 -1096.5 163 C-1091.64439699 165.28735018 -1086.78854048 167.24386432 -1081.72265625 169.0078125 C-1078.8835353 170.04244194 -1076.14249339 171.22507432 -1073.375 172.4375 C-1062.10567306 177.19015276 -1050.08641164 180.04376325 -1038.26953125 183.10546875 C-1036.11658009 183.69450796 -1033.97896349 184.3433124 -1031.86328125 185.0546875 C-1029.35055789 185.88426329 -1026.97321005 186.46875076 -1024.375 186.9375 C-1020.77435116 187.60928382 -1017.28570123 188.461932 -1013.7578125 189.44140625 C-1005.76033366 191.45516432 -997.68716195 192.18974477 -989.5 193 C-987.86913008 193.16813746 -986.23835275 193.33717517 -984.60766602 193.50708008 C-981.32106324 193.8483912 -978.03406769 194.18536715 -974.74658203 194.51806641 C-967.80803893 195.22077274 -960.87270277 195.95261962 -953.9375 196.6875 C-952.20113281 196.86635742 -952.20113281 196.86635742 -950.4296875 197.04882812 C-949.36878906 197.16033203 -948.30789063 197.27183594 -947.21484375 197.38671875 C-946.29823975 197.48170654 -945.38163574 197.57669434 -944.43725586 197.67456055 C-942 198 -942 198 -940.27645874 198.50849915 C-937.20752492 199.17110004 -934.27909545 199.15750809 -931.1394043 199.18945312 C-930.45756073 199.19774643 -929.77571716 199.20603973 -929.07321167 199.21458435 C-927.59620634 199.23194453 -926.1191741 199.24712225 -924.64212608 199.26036072 C-922.30006808 199.28146765 -919.95814352 199.30848638 -917.61616516 199.33703613 C-912.63999542 199.39663515 -907.66376227 199.44879846 -902.6875 199.5 C-896.92937501 199.55938362 -891.1713153 199.62185453 -885.4133091 199.69187927 C-883.11407724 199.71829212 -880.81483821 199.73920684 -878.51554871 199.7598877 C-877.09328909 199.77650703 -875.67103241 199.79338028 -874.2487793 199.81054688 C-873.01508102 199.82307495 -871.78138275 199.83560303 -870.51029968 199.84851074 C-866.94726293 200.0022759 -863.52441812 200.470118 -860 201 C-858.48014243 201.10063347 -856.95788716 201.17234826 -855.43505859 201.20532227 C-854.17403824 201.23515701 -854.17403824 201.23515701 -852.88754272 201.26559448 C-851.983638 201.28236237 -851.07973328 201.29913025 -850.1484375 201.31640625 C-849.17097565 201.33768585 -848.19351379 201.35896545 -847.18643188 201.38088989 C-837.80334286 201.57585914 -828.418929 201.70352116 -819.03460693 201.82237244 C-812.26544479 201.91098294 -805.498912 202.02767213 -798.73144531 202.20410156 C-757.94586595 203.2571738 -719.88456052 200.6904235 -679.8223877 192.5692749 C-677.22624154 192.04563286 -674.62760653 191.53912709 -672.02636719 191.04150391 C-666.04803111 190.43126593 -666.04803111 190.43126593 -661 188 C-657.64472786 187.42274888 -654.27821628 186.96914314 -650.90625 186.5 C-648.11524717 186.30757295 -648.11524717 186.30757295 -647 185 C-645.06974111 184.77480313 -643.13870558 184.55251748 -641.203125 184.37890625 C-638.93949807 184.07194772 -638.93949807 184.07194772 -636.71875 183.0625 C-633.30600667 181.72878421 -629.83925844 181.0910355 -626.25 180.4375 C-621.76030709 179.96081277 -621.76030709 179.96081277 -618 178 C-615.94355961 177.55438773 -613.87934327 177.14455832 -611.8125 176.75 C-605.48198828 175.43781102 -599.66732071 173.51340131 -593.60546875 171.24609375 C-589.91024396 169.96897922 -586.24204758 169.0213191 -582.4375 168.125 C-575.23748685 166.42808641 -568.29698131 164.17643799 -561.29980469 161.78662109 C-553.52422461 159.14066599 -545.68778572 156.73406815 -537.81420898 154.3972168 C-528.78714687 152.30716736 -528.78714687 152.30716736 -521 148 C-519.00041636 147.95919217 -516.99954746 147.95745644 -515 148 C-515 147.34 -515 146.68 -515 146 C-511.04077501 144.44459018 -507.21583029 142.99010495 -503.0625 142.0625 C-496.50174245 140.51271475 -490.73220351 137.4694916 -485 134 C-483.36486122 133.29922624 -481.72868559 132.60071426 -480.0859375 131.91796875 C-477.69477693 130.86567899 -475.38829257 129.69017831 -473.0625 128.5 C-465.80166636 124.83300467 -458.40065852 121.48056275 -450.99829102 118.1105957 C-444.31722633 115.0705311 -444.31722633 115.0705311 -437.67578125 111.9453125 C-430.60230607 108.5600451 -423.49399819 105.55706023 -416.09960938 102.9519043 C-412.20350378 101.56104694 -412.20350378 101.56104694 -409 99 C-407.14622123 98.29556407 -405.26638479 97.65864533 -403.375 97.0625 C-399.74816723 95.89983112 -396.16683571 94.71276063 -392.625 93.3125 C-389.37019436 92.13403589 -386.42425284 91.4280316 -383 91 C-382.94392578 90.10861328 -382.94392578 90.10861328 -382.88671875 89.19921875 C-381.78449581 75.30256487 -377.65141153 63.53021031 -367 54 C-366.29875 53.21625 -365.5975 52.4325 -364.875 51.625 C-350.79809521 38.77217389 -335.56349468 37.12749149 -317.23339844 37.86083984 C-305.41358298 38.5973172 -295.09096213 44.89313065 -286.6875 53 C-283.93014051 55.59274101 -282.3102955 56.43085027 -278.5 56.4375 C-276.7675 56.2209375 -276.7675 56.2209375 -275 56 C-275 55.34 -275 54.68 -275 54 C-271.37 53.34 -267.74 52.68 -264 52 C-264 51.34 -264 50.68 -264 50 C-259.05 49.01 -259.05 49.01 -254 48 C-254 47.34 -254 46.68 -254 46 C-252.10507994 45.66151348 -250.20901534 45.32943089 -248.3125 45 C-247.25675781 44.814375 -246.20101563 44.62875 -245.11328125 44.4375 C-242.35095938 44.04931926 -239.78257957 43.91740024 -237 44 C-237 43.34 -237 42.68 -237 42 C-231.73397729 40.09374743 -226.65195317 39.29213045 -221.12109375 38.5625 C-218.1599303 38.02882348 -215.76657968 37.1435196 -213 36 C-209.0625 35.5 -209.0625 35.5 -207.16015625 35.34375 C-204.89610474 35.05148265 -204.89610474 35.05148265 -202.44140625 34.0859375 C-197.66222632 32.57786483 -192.81703108 31.9088617 -187.875 31.125 C-180.72706503 29.93885797 -174.00803354 28.58678205 -167.1953125 26.07421875 C-155.15235704 22.02554791 -142.57486554 19.63777766 -129.95703125 18.359375 C-127.07409579 18.17706422 -127.07409579 18.17706422 -125 17 C-122.6430715 16.69407257 -120.29327176 16.43015309 -117.9296875 16.1875 C-106.25984128 14.89902469 -94.70410452 12.92060596 -83.125 11 C-80.93495014 10.64029421 -78.74484622 10.28091741 -76.5546875 9.921875 C-74.43484691 9.57321398 -72.31505354 9.22426575 -70.1953125 8.875 C-68.75274582 8.63740967 -68.75274582 8.63740967 -67.28103638 8.39501953 C-61.63135595 7.45743366 -55.99847063 6.45651946 -50.37277222 5.38378906 C-47.55702015 4.92834929 -44.8465914 4.84613019 -42 5 C-42 4.34 -42 3.68 -42 3 C-33.11320844 1.88696003 -24.3112711 1.88491035 -15.375 1.9375 C-13.87890775 1.94252697 -12.38281387 1.94708775 -10.88671875 1.95117188 C-7.25777781 1.96207815 -3.62889973 1.97927618 0 2 C0 1.34 0 0.68 0 0 Z " fill="#881B12" transform="translate(1470,206)"/>
<path d="M0 0 C1.65 0 3.3 0 5 0 C5 20.79 5 41.58 5 63 C-0.60749812 64.12149962 -0.60749812 64.12149962 -3.99482727 63.24407959 C-5.11335602 62.97278921 -5.11335602 62.97278921 -6.25448132 62.69601822 C-7.04746781 62.49952557 -7.84045431 62.30303291 -8.6574707 62.10058594 C-18.34848049 59.89066987 -27.57506288 59.39582773 -37.48046875 59.390625 C-39.15726774 59.37558523 -40.83405224 59.35884638 -42.51081848 59.34051514 C-46.85233366 59.29747803 -51.19364948 59.27698693 -55.53533936 59.26177979 C-59.99437962 59.2419746 -64.45321145 59.20003412 -68.91210938 59.16015625 C-77.60801732 59.08554685 -86.30384202 59.03484065 -95 59 C-95 59.66 -95 60.32 -95 61 C-108.86 61.33 -122.72 61.66 -137 62 C-137 62.66 -137 63.32 -137 64 C-150.70379406 66.47005452 -164.43635165 68.76005895 -178.17675781 71.01660156 C-180.6532859 71.42401561 -183.12952154 71.83321117 -185.60546875 72.24414062 C-189.23375052 72.84630541 -192.86285662 73.44325747 -196.4921875 74.0390625 C-197.5851413 74.22135406 -198.67809509 74.40364563 -199.8041687 74.59146118 C-205.81059594 75.57063224 -211.7667949 76.31672652 -217.83816528 76.75253296 C-220.04588818 76.88019805 -220.04588818 76.88019805 -222 78 C-223.4062685 78.21767126 -224.81938668 78.39203863 -226.234375 78.54296875 C-240.41853153 80.1863907 -255.13077906 82.37484721 -268.37182617 88.00927734 C-271.42686544 89.16091221 -274.359088 89.71019917 -277.578125 90.25390625 C-278.82078125 90.46853516 -280.0634375 90.68316406 -281.34375 90.90429688 C-283.27734375 91.23010742 -283.27734375 91.23010742 -285.25 91.5625 C-287.81856993 91.99659337 -290.38598113 92.43634134 -292.953125 92.87890625 C-294.08911133 93.0704126 -295.22509766 93.26191895 -296.39550781 93.45922852 C-298.91729151 93.73442824 -298.91729151 93.73442824 -300 95 C-301.88933295 95.34965882 -303.78701712 95.6546483 -305.6875 95.9375 C-309.99672356 96.62271223 -313.87705419 97.56593189 -318 99 C-322.72643756 100.1058652 -327.13287776 101 -332 101 C-332 101.66 -332 102.32 -332 103 C-337.83799592 104.69832609 -342.93107371 105.25287193 -349 105 C-349 105.66 -349 106.32 -349 107 C-352.61973402 108.31626692 -355.09567131 109 -359 109 C-359 109.66 -359 110.32 -359 111 C-362.87684087 112.19287411 -365.91621923 113 -370 113 C-370 113.66 -370 114.32 -370 115 C-373.07709812 115.89515582 -374.87780305 116.37654637 -378 116 C-380.43805257 114.30553093 -382.4049046 112.34802315 -384.5234375 110.26953125 C-397.15001552 98.69848736 -411.40056919 97.2473693 -427.69433594 97.88330078 C-439.7697169 98.49448588 -448.7069235 102.20580681 -458 110 C-458.66 110 -459.32 110 -460 110 C-460.4021875 110.9590625 -460.4021875 110.9590625 -460.8125 111.9375 C-462 114 -462 114 -465 115 C-466.04008749 116.8025629 -466.04008749 116.8025629 -467 119 C-467.52335937 119.77472656 -468.04671875 120.54945313 -468.5859375 121.34765625 C-474.52644006 130.36217433 -476.22903889 139.48423093 -478 150 C-479.25103516 150.36351562 -479.25103516 150.36351562 -480.52734375 150.734375 C-487.2734908 152.74353678 -493.63440542 155.0123425 -500 158 C-500.845625 158.33 -501.69125 158.66 -502.5625 159 C-505.21782702 160.04740856 -505.21782702 160.04740856 -508.5 161.8125 C-512.9871659 164.09410978 -517.6423416 165.82375421 -522.36328125 167.55859375 C-527.32713297 169.52600651 -532.15221389 171.76427733 -537 174 C-538.54723755 174.70829956 -538.54723755 174.70829956 -540.12573242 175.4309082 C-543.39819565 176.92905753 -546.66803731 178.43281505 -549.9375 179.9375 C-551.02740234 180.43701172 -552.11730469 180.93652344 -553.24023438 181.45117188 C-559.67313314 184.41343958 -566.03769927 187.47942955 -572.35205078 190.68701172 C-574.85372441 191.9274691 -577.37594733 193.07693155 -579.9375 194.1875 C-583.12957877 195.57436367 -586.02047991 197.19660626 -589 199 C-595.87304943 202.18196733 -602.48444171 204.07972756 -610 205 C-610 205.66 -610 206.32 -610 207 C-611.3921875 207.37125 -611.3921875 207.37125 -612.8125 207.75 C-615.83453659 208.61002622 -618.74951027 209.63782723 -621.6875 210.75 C-626.73629119 212.61511501 -631.83862424 214.17348961 -637 215.6875 C-646.53976758 218.48692422 -655.95631887 221.61305916 -665.359375 224.84057617 C-671.61528369 226.96438608 -677.85274686 228.78042146 -684.27636719 230.32299805 C-687.95165701 231.23654938 -691.53007537 232.37766637 -695.125 233.5625 C-700.30517024 235.23034619 -705.4210028 236.59208549 -710.78125 237.5390625 C-713.09060867 238.01882363 -715.21632311 238.71007442 -717.4375 239.5 C-721.82458731 241.05392359 -726.22303394 241.84364704 -730.8125 242.5703125 C-732.9685568 242.78270474 -732.9685568 242.78270474 -734 244 C-735.96166726 244.23274018 -737.92354603 244.46391368 -739.88671875 244.68359375 C-742.18337288 244.96541976 -742.18337288 244.96541976 -745 246 C-748.02637725 247.00879242 -750.71565464 247.39297122 -753.875 247.65625 C-756.13564467 247.95990406 -756.13564467 247.95990406 -758.72851562 248.94042969 C-761.97545602 249.99205068 -765.11308709 250.68365246 -768.46875 251.296875 C-769.73944336 251.53067871 -771.01013672 251.76448242 -772.31933594 252.00537109 C-777.53742575 252.94097612 -782.761126 253.8451086 -787.9854126 254.74539185 C-792.40260075 255.51468635 -796.79234251 256.35882613 -801.17662048 257.29701233 C-832.9757888 264.03735664 -865.41033147 262.59834418 -897.72357178 262.0682373 C-901.87892618 262.00054886 -906.03437648 261.94456276 -910.18994141 261.89160156 C-921.84341526 261.74079693 -933.49665228 261.56763991 -945.1484375 261.31640625 C-946.05245804 261.29965851 -946.95647858 261.28291077 -947.88789368 261.26565552 C-948.7284581 261.24574554 -949.56902252 261.22583557 -950.43505859 261.20532227 C-951.51187393 261.18200584 -951.51187393 261.18200584 -952.61044312 261.15821838 C-955 261 -955 261 -958.34912109 260.49702454 C-961.93992438 260.00817859 -965.35728965 259.86218113 -968.97900391 259.84228516 C-969.63879745 259.83720444 -970.298591 259.83212372 -970.9783783 259.82688904 C-972.40128924 259.81625588 -973.82421618 259.80760856 -975.24715042 259.80076981 C-977.52189573 259.78882444 -979.79646411 259.76932645 -982.07113647 259.74765015 C-988.53596813 259.68661312 -995.00078447 259.63248802 -1001.46582031 259.59863281 C-1018.38766484 259.50504288 -1034.92864444 259.28518148 -1051.64837646 256.37677002 C-1055.83526126 255.70595998 -1060.04763481 255.28994108 -1064.265625 254.8671875 C-1065.50975662 254.74121689 -1065.50975662 254.74121689 -1066.77902222 254.61270142 C-1069.26901777 254.36333267 -1071.75946744 254.11894073 -1074.25 253.875 C-1076.79824489 253.62100113 -1079.34636318 253.36575981 -1081.89447021 253.11038208 C-1083.4538089 252.95455771 -1085.01324878 252.79974071 -1086.57281494 252.64620972 C-1088.71562187 252.43466759 -1090.85791106 252.2186892 -1093 252 C-1094.19502892 251.87893135 -1094.19502892 251.87893135 -1095.41419983 251.75541687 C-1096.60389626 251.63007317 -1096.60389626 251.63007317 -1097.81762695 251.50219727 C-1098.53304153 251.42767838 -1099.24845612 251.35315948 -1099.98554993 251.27638245 C-1103.07087583 250.85307589 -1105.9670235 249.98102541 -1108.9375 249.0625 C-1113.67847589 247.65233766 -1118.33962318 246.46619809 -1123.1953125 245.55078125 C-1135.13171593 243.20672431 -1146.51400853 239.99407501 -1158 236 C-1159.32826955 235.56674751 -1160.65772148 235.13710464 -1161.98828125 234.7109375 C-1167.93910887 232.79817148 -1173.6784154 230.87466106 -1179.1875 227.89453125 C-1181.20992291 226.8963958 -1183.22203474 226.23156386 -1185.375 225.5625 C-1188.63189399 224.53400716 -1191.54028762 223.27707234 -1194.5625 221.6875 C-1199.67328388 219.02764235 -1204.95757959 217.06279639 -1210.37915039 215.14331055 C-1214.21911735 213.76220763 -1217.52793581 212.11931191 -1221 210 C-1223.04673703 209.16842926 -1225.11084909 208.37876611 -1227.1875 207.625 C-1231.19492842 206.12333499 -1235.02741377 204.55768952 -1238.8125 202.5625 C-1243.83364865 199.94456559 -1249.05132664 198.02983043 -1254.38012695 196.14282227 C-1258.21657215 194.76325112 -1261.54343672 193.14306923 -1265 191 C-1266.71365858 190.25493105 -1268.44322459 189.54526619 -1270.1875 188.875 C-1274.8807947 187.05960265 -1274.8807947 187.05960265 -1277 186 C-1277 185.34 -1277 184.68 -1277 184 C-1278.0828125 183.8453125 -1278.0828125 183.8453125 -1279.1875 183.6875 C-1282.24765821 182.93946133 -1284.32233369 181.62069276 -1287 180 C-1287.99 180 -1288.98 180 -1290 180 C-1290.45439453 180.87011719 -1290.45439453 180.87011719 -1290.91796875 181.7578125 C-1295.6108188 190.5081729 -1300.1120317 195.57177466 -1309 200 C-1310.051875 200.5775 -1311.10375 201.155 -1312.1875 201.75 C-1321.70515773 205.9800701 -1334.48251993 205.34401681 -1344.125 201.8125 C-1352.50488787 198.38436405 -1357.00744566 193.17255734 -1361.75 185.75 C-1362.23082031 185.03714844 -1362.71164062 184.32429687 -1363.20703125 183.58984375 C-1368.66303402 175.15507623 -1370.16486548 165.97069378 -1369 156 C-1367.96373632 153.22848346 -1366.76159819 151.43515044 -1365 149 C-1364.34 148.01 -1363.68 147.02 -1363 146 C-1364.10214844 145.82210937 -1364.10214844 145.82210937 -1365.2265625 145.640625 C-1367.98329461 145.00385871 -1369.91280152 144.11500828 -1372.375 142.75 C-1377.85108559 139.90933191 -1383.52357588 138.05593916 -1389.38671875 136.2109375 C-1393 135 -1393 135 -1396.28515625 133.55078125 C-1400.95839584 131.49724003 -1405.8465786 130.19961502 -1410.75 128.8125 C-1412.89347453 128.19877295 -1415.0366941 127.58415494 -1417.1796875 126.96875 C-1418.2944043 126.6490625 -1419.40912109 126.329375 -1420.55761719 126 C-1424.02757742 124.99198886 -1427.48728845 123.95443018 -1430.9453125 122.90625 C-1443.53488725 119.09495469 -1456.05865637 115.42228586 -1469 113 C-1470.26690422 112.74869324 -1470.26690422 112.74869324 -1471.55940247 112.49230957 C-1479.24312874 111.0708282 -1486.62060042 110.73544462 -1494.421875 110.8046875 C-1496.26087372 110.80893234 -1496.26087372 110.80893234 -1498.13702393 110.81326294 C-1502.00812018 110.82435393 -1505.87897505 110.84943754 -1509.75 110.875 C-1512.3932258 110.88504413 -1515.03645526 110.89416746 -1517.6796875 110.90234375 C-1524.11987241 110.92425686 -1530.55991895 110.95762219 -1537 111 C-1538.0252963 107.49898823 -1538.98325274 104.09378468 -1539.625 100.5 C-1541.5594635 95.5759111 -1544.64123382 92.90310276 -1549 90 C-1554.24493447 88.28969528 -1559.39040111 89 -1565 89 C-1565 71.18 -1565 53.36 -1565 35 C-1552.62012546 33.87455686 -1552.62012546 33.87455686 -1548.13647461 33.9465332 C-1546.62451759 33.96699455 -1546.62451759 33.96699455 -1545.08201599 33.98786926 C-1544.03272415 34.00863022 -1542.98343231 34.02939117 -1541.90234375 34.05078125 C-1540.22997398 34.07908272 -1540.22997398 34.07908272 -1538.52381897 34.10795593 C-1536.18338462 34.14955023 -1533.84300364 34.19425435 -1531.50268555 34.24194336 C-1527.9439486 34.31237238 -1524.38520237 34.36667016 -1520.82617188 34.41992188 C-1518.53904404 34.46256292 -1516.25193363 34.50615082 -1513.96484375 34.55078125 C-1512.91352768 34.56546951 -1511.86221161 34.58015778 -1510.77903748 34.59529114 C-1505.09019444 34.72605833 -1499.77220418 35.2549087 -1494.220047 36.52183533 C-1487.14703057 38.04525649 -1479.82599505 38.12519776 -1472.62419128 38.45043945 C-1455.20581782 39.24519999 -1438.45825201 41.19243878 -1421.31030273 44.40429688 C-1417.90668852 45.0167918 -1414.49809498 45.54973603 -1411.078125 46.0625 C-1406.69464959 46.72295556 -1402.37900034 47.47781717 -1398.0625 48.5 C-1397.04285156 48.7371875 -1396.02320313 48.974375 -1394.97265625 49.21875 C-1392.95080637 49.75011659 -1390.94786243 50.35794371 -1388.96875 51.03125 C-1385.24548315 52.24621076 -1381.54283502 52.82440068 -1377.68359375 53.4375 C-1375 54 -1375 54 -1372.68212891 54.94628906 C-1369.93924824 56.02386716 -1367.26827983 56.7421757 -1364.40234375 57.421875 C-1358.40855745 58.88346139 -1352.48323306 60.51782843 -1346.5625 62.25 C-1345.02529297 62.69907715 -1345.02529297 62.69907715 -1343.45703125 63.15722656 C-1330.48724876 66.98666665 -1317.64176634 71.19492417 -1305 76 C-1303.91976563 76.39960938 -1302.83953125 76.79921875 -1301.7265625 77.2109375 C-1295.76575796 79.44811603 -1290.06257507 81.87394308 -1284.4140625 84.80859375 C-1281.08002928 86.45403086 -1277.63729136 87.757767 -1274.171875 89.09765625 C-1272 90 -1272 90 -1269.4375 91.5625 C-1266.57952861 93.24797031 -1263.73276701 94.17540692 -1260.57421875 95.15625 C-1257.76030617 96.07856429 -1255.00256929 97.12784254 -1252.2331543 98.17480469 C-1248.20617296 99.66285508 -1244.13533277 101.01852357 -1240.0625 102.375 C-1239.15097168 102.67881592 -1238.23944336 102.98263184 -1237.30029297 103.2956543 C-1227.75944274 106.44963378 -1218.13852902 109.28581916 -1208.4609375 111.98828125 C-1204.93404078 113.01928153 -1201.4741226 114.17886569 -1198 115.375 C-1191.74925213 117.49325294 -1185.45438675 119.25501259 -1179.0625 120.90625 C-1174.44054455 122.12351747 -1169.8813572 123.53635433 -1165.3125 124.9375 C-1157.44609966 127.3438273 -1149.53725145 129.44779693 -1141.53442383 131.35131836 C-1137.52886312 132.31388858 -1133.8096585 133.4077075 -1130 135 C-1128.25915877 135.49197687 -1126.50792621 135.94807506 -1124.75 136.375 C-1123.17798828 136.75978516 -1123.17798828 136.75978516 -1121.57421875 137.15234375 C-1119.01623168 137.75899205 -1116.45728199 138.35568572 -1113.89453125 138.94140625 C-1107.44301943 140.42146759 -1101.05654443 141.90893577 -1094.75 143.9375 C-1086.60604615 146.52463985 -1078.30296823 148.38841285 -1069.98193359 150.30712891 C-1066.87659049 151.02867498 -1063.77609345 151.76887167 -1060.67578125 152.51171875 C-1049.36181263 155.20232881 -1038.06799957 157.63235797 -1026.59399414 159.53369141 C-1019.71320402 160.67764264 -1012.89194795 162.02123996 -1006.0625 163.4375 C-996.22514566 165.45465763 -986.35775709 167.14294238 -976.4375 168.6875 C-975.14271729 168.88980225 -973.84793457 169.09210449 -972.51391602 169.30053711 C-958.66119063 171.42051886 -944.86437751 173.14214622 -930.875 174.0625 C-928.55972019 174.21744959 -926.24460695 174.37491297 -923.9296875 174.53515625 C-922.93179199 174.600979 -921.93389648 174.66680176 -920.90576172 174.73461914 C-918 175 -918 175 -915.38110352 175.47045898 C-910.26951544 176.2710247 -905.13138939 176.57330782 -899.97265625 176.9375 C-898.20274574 177.06499634 -898.20274574 177.06499634 -896.39707947 177.19506836 C-893.89315707 177.37462143 -891.38913051 177.55272694 -888.88500977 177.72949219 C-885.13459406 177.99489811 -881.38467661 178.26662989 -877.63476562 178.5390625 C-854.35585094 180.21139833 -831.19949793 181.18683293 -807.85791016 181.18530273 C-804.13562646 181.18749375 -800.41363819 181.20575581 -796.69140625 181.22460938 C-756.56322731 181.31948836 -718.53637575 174.81832976 -680.0703125 163.46484375 C-674.55864951 161.84764275 -669.00184309 160.42318953 -663.4375 159 C-655.39122067 156.93362725 -647.42737943 154.68435755 -639.48583984 152.24780273 C-633.37806627 150.38325437 -627.2340684 148.70195848 -621.0625 147.0625 C-611.94391522 144.62647072 -603.01462022 141.77602142 -594.08984375 138.7109375 C-590.49841648 137.48467381 -586.88990514 136.34589671 -583.2578125 135.24609375 C-574.41709014 132.54776222 -565.65847696 129.60257899 -556.8918457 126.67407227 C-553.96834892 125.69780167 -551.04380828 124.72470964 -548.11914062 123.75195312 C-537.88912687 120.34299038 -527.68319118 116.87519328 -517.5153656 113.28459167 C-513.1934036 111.75903057 -508.86054438 110.28779813 -504.5 108.875 C-500.7869529 107.6494339 -497.18936202 106.28457357 -493.58984375 104.7578125 C-487.08508151 102.02459315 -480.54376042 99.38710774 -473.99145508 96.77050781 C-472.06735329 96.00193861 -470.14399629 95.23152766 -468.22070312 94.4609375 C-461.2276022 91.66287019 -454.21828468 88.911242 -447.18334961 86.21972656 C-443.96715532 84.98741529 -440.75691114 83.74044118 -437.546875 82.4921875 C-424.29334576 77.37230168 -410.98509748 72.53664265 -397.5 68.0625 C-396.81643433 67.83552429 -396.13286865 67.60854858 -395.42858887 67.37469482 C-388.62062794 65.11995567 -381.79738029 62.92431424 -374.9375 60.83203125 C-370.73766667 59.55064433 -366.60735698 58.18182079 -362.5 56.625 C-353.15372253 53.23488819 -343.57240226 50.66600225 -334 48 C-326.18721946 45.79681215 -318.3973044 43.52889344 -310.625 41.1875 C-299.10433055 37.71894692 -287.56165355 34.32939492 -276 31 C-274.95585938 30.69916504 -273.91171875 30.39833008 -272.8359375 30.08837891 C-259.35809548 26.22012234 -245.85267704 22.65688088 -232.18798828 19.51171875 C-228.78175527 18.71508135 -225.39220263 17.85401217 -222 17 C-184.37447563 7.55765001 -146.03054639 5.33517653 -107.40625 4.28125 C-105.16254986 4.21806587 -102.91885696 4.15462452 -100.6751709 4.09094238 C-94.80653423 3.92487932 -88.93782666 3.76148986 -83.0690918 3.59893799 C-73.7102658 3.33950408 -64.3515292 3.07693182 -54.99284363 2.81248474 C-51.77541348 2.72209765 -48.55793874 2.63346657 -45.3404541 2.54504395 C-39.22658688 2.37513072 -33.11318457 2.1929018 -27 2 C-25.81824188 1.96282867 -24.63648376 1.92565735 -23.41891479 1.88735962 C-19.78620854 1.77004028 -16.15384775 1.64503645 -12.52148438 1.51757812 C-10.81673824 1.46279926 -10.81673824 1.46279926 -9.0775528 1.40691376 C-8.03501091 1.36870766 -6.99246902 1.33050156 -5.91833496 1.2911377 C-4.99124474 1.25905464 -4.06415451 1.22697159 -3.10897064 1.19391632 C-1.01488086 1.22801163 -1.01488086 1.22801163 0 0 Z " fill="#4293E0" transform="translate(1565,147)"/>
<path d="M0 0 C5.24280524 2.56117693 9.87159126 5.43951288 12.27734375 10.8984375 C13.74816846 17.21105814 14.20727613 23.54073381 11.3125 29.4375 C10.549375 30.283125 9.78625 31.12875 9 32 C7.7934375 33.36125 7.7934375 33.36125 6.5625 34.75 C4.06633224 36.94175705 2.14276438 38.01227405 -1 39 C-1 39.66 -1 40.32 -1 41 C-14.00823045 41.76895944 -14.00823045 41.76895944 -20 37 C-26.22995812 29.84286796 -26.60959906 23.31651391 -26 14 C-22.4482962 2.5091936 -11.03143235 -1.81607563 0 0 Z " fill="#DEEBF4" transform="translate(316,380)"/>
<path d="M0 0 C2.1875 1.75 2.1875 1.75 3 3.5 C3.061875 4.2425 3.12375 4.985 3.1875 5.75 C3.31125 6.884375 3.435 8.01875 3.5625 9.1875 C3.08918248 13.68401643 1.59651937 14.92300833 -1.8125 17.75 C-2.1425 18.08 -2.4725 18.41 -2.8125 18.75 C-7.53139824 19.22188982 -9.75584124 19.41041173 -13.8125 16.875 C-16.56498588 12.57424082 -16.6162907 8.74196332 -15.8125 3.75 C-12.07269524 -1.85970715 -6.04383351 -2.68614823 0 0 Z " fill="#85211D" transform="translate(34.8125,208.25)"/>
<path d="M0 0 C3.26104325 2.69036068 3.9034571 4.32419973 4.5 8.5 C3.9231981 12.53761333 2.85349783 14.14650217 0 17 C-3.46822926 18.73411463 -7.2079795 18.45800603 -11 18 C-13.5625 16.5625 -13.5625 16.5625 -15 14 C-15.47675177 10.92883161 -15.62402123 8.0526444 -15 5 C-11.02161266 0.2346789 -6.05115903 -1.19039194 0 0 Z " fill="#DAEEFA" transform="translate(65,190)"/>
<path d="M0 0 C-1.39332574 3.36720387 -2.9789286 4.9859524 -6 7 C-5.37162381 3.35541809 -4.14650034 0 0 0 Z " fill="#CFC7CD" transform="translate(299,384)"/>
</svg>
