<svg version="1.1" id="Layer_1" xmlns="http://www.w3.org/2000/svg" xmlns:xlink="http://www.w3.org/1999/xlink" x="0px" y="0px"
	 width="100%" viewBox="0 0 1366 768" enable-background="new 0 0 1366 768" xml:space="preserve">
<path fill="#950303" opacity="1.000000" stroke="none" 
	d="
M0.999996,391.000000 
	C1.000000,261.024567 1.000000,131.049118 1.000000,1.036833 
	C456.222778,1.036833 911.445557,1.036833 1367.000000,1.036833 
	C1367.000000,149.694534 1367.000000,298.389313 1366.651611,447.646240 
	C1363.021606,445.422241 1359.586426,442.796295 1356.482178,439.824799 
	C1330.393066,414.851410 1308.889893,385.976288 1286.792847,357.615967 
	C1266.216553,331.207642 1245.975586,304.496185 1221.069702,281.876007 
	C1181.844360,246.250549 1137.603271,220.245758 1084.300537,212.418198 
	C1054.745850,208.078079 1025.903320,211.191864 997.957153,222.182831 
	C966.478333,234.563171 939.027466,253.294495 915.018616,276.676575 
	C889.745972,301.289429 865.978394,327.440094 841.080872,352.448700 
	C825.823364,367.774353 810.685364,383.507751 793.697998,396.755402 
	C767.601807,417.106506 737.816284,430.533203 705.112549,437.373260 
	C672.458801,444.202881 639.799500,447.999939 606.513855,442.781403 
	C587.334534,439.774475 568.665649,434.928711 551.111755,426.734863 
	C520.092468,412.255524 492.138855,393.138672 467.969330,368.777710 
	C448.029449,348.679871 428.455414,328.218719 408.495667,308.140900 
	C366.770905,266.169403 317.000763,241.694458 257.194092,239.938065 
	C225.174179,238.997711 193.770447,243.299423 163.114975,252.836700 
	C126.449585,264.243713 93.962044,282.829620 65.815506,308.971375 
	C41.321804,331.720490 21.965042,358.495087 4.660900,386.890778 
	C3.721754,388.431824 2.232938,389.637939 0.999996,391.000000 
M1318.527588,260.028931 
	C1330.817505,247.106171 1333.651245,231.948227 1327.009766,215.817520 
	C1320.731934,200.570511 1308.628296,192.202469 1291.790527,191.584229 
	C1261.744263,190.481018 1241.193115,220.771057 1253.490845,248.021561 
	C1264.625854,272.695343 1297.281494,279.780518 1318.527588,260.028931 
M323.998413,90.733871 
	C323.860687,97.334663 322.443787,104.215637 323.817139,110.485443 
	C328.565521,132.163986 347.953522,145.050934 372.080292,140.600876 
	C388.590942,137.555557 401.051849,122.303322 402.756866,104.752876 
	C404.363831,88.212074 394.367493,71.299294 379.176880,64.857880 
	C356.209076,55.118610 332.780151,65.792313 323.998413,90.733871 
z"/>
<path fill="#DEF2FD" opacity="1.000000" stroke="none" 
	d="
M1367.000000,664.000000 
	C1367.000000,698.991089 1367.000000,733.982239 1367.000000,768.936646 
	C911.666687,768.936646 456.333313,768.936646 1.000000,768.936646 
	C1.000000,705.223083 1.000000,641.572754 1.353096,577.469727 
	C3.260959,575.135803 5.015059,573.384705 6.340145,571.353638 
	C22.468634,546.632263 39.992165,523.049438 62.224800,503.370758 
	C68.688339,497.649750 75.329933,492.078156 82.281090,486.970459 
	C97.226364,475.988739 113.344780,466.956085 130.473206,459.836792 
	C138.534500,456.486176 146.823517,453.683411 155.993210,450.265656 
	C155.146317,463.154114 159.219788,473.021484 167.499008,481.104095 
	C175.879944,489.285980 185.900009,493.539734 197.699356,492.957550 
	C207.162018,492.490692 215.664108,489.088715 222.584656,482.713226 
	C235.702179,470.628754 238.426529,455.421509 233.658646,437.704803 
	C241.070740,438.153259 247.327957,438.647156 253.594910,438.890533 
	C276.930328,439.796570 299.300934,444.986237 320.757935,454.084167 
	C338.923096,461.786346 355.850067,471.686920 370.889130,484.479767 
	C377.700836,490.274109 383.626465,497.103088 390.033112,503.382050 
	C403.334717,516.418518 416.875458,529.216492 429.981506,542.445862 
	C454.270844,566.963623 479.291565,590.389587 509.340179,608.092590 
	C542.354919,627.543213 577.743652,638.353027 615.875488,638.635681 
	C633.537109,638.766541 651.334106,636.468323 668.873840,633.922302 
	C705.770386,628.566711 739.114624,614.006042 769.242676,592.202026 
	C779.832886,584.537720 788.990112,574.869873 801.499512,569.947937 
	C804.419189,568.799194 807.119263,567.045105 809.829102,565.417664 
	C841.308960,546.512146 868.353516,522.262329 893.707275,495.941833 
	C915.773315,473.034302 937.967224,450.249634 960.185425,427.489441 
	C962.242981,425.381653 964.657776,423.362885 967.292480,422.121490 
	C981.262207,415.539429 996.155457,411.449951 1011.392273,410.285095 
	C1040.545898,408.056305 1069.100708,411.632446 1096.637939,422.223694 
	C1119.002808,430.825592 1139.993408,441.885315 1159.154175,456.231537 
	C1168.049683,462.891998 1177.276123,469.513123 1184.674438,477.673462 
	C1194.914185,488.967712 1203.530396,501.728546 1212.915039,513.804504 
	C1228.628906,534.024841 1244.564941,554.028381 1262.601807,572.314941 
	C1274.267944,584.142517 1285.322388,596.596069 1296.283325,609.091675 
	C1313.132568,628.300171 1330.979492,646.301819 1353.669678,658.666992 
	C1357.842651,660.941040 1362.543091,662.247131 1367.000000,664.000000 
M87.157539,708.651550 
	C99.505943,693.942871 100.498482,673.904541 89.626732,658.801270 
	C78.861244,643.845581 58.894836,637.934448 42.067848,644.721252 
	C24.580891,651.774231 14.183809,669.705261 17.263767,688.583069 
	C19.921070,704.870239 29.726858,716.020630 45.258034,720.611938 
	C60.881958,725.230774 75.217842,721.447815 87.157539,708.651550 
z"/>
<path fill="#7ED2FF" opacity="1.000000" stroke="none" 
	d="
M1367.000000,663.531372 
	C1362.543091,662.247131 1357.842651,660.941040 1353.669678,658.666992 
	C1330.979492,646.301819 1313.132568,628.300171 1296.283325,609.091675 
	C1285.322388,596.596069 1274.267944,584.142517 1262.601807,572.314941 
	C1244.564941,554.028381 1228.628906,534.024841 1212.915039,513.804504 
	C1203.530396,501.728546 1194.914185,488.967712 1184.674438,477.673462 
	C1177.276123,469.513123 1168.049683,462.891998 1159.154175,456.231537 
	C1139.993408,441.885315 1119.002808,430.825592 1096.637939,422.223694 
	C1069.100708,411.632446 1040.545898,408.056305 1011.392273,410.285095 
	C996.155457,411.449951 981.262207,415.539429 967.292480,422.121490 
	C964.657776,423.362885 962.242981,425.381653 960.185425,427.489441 
	C937.967224,450.249634 915.773315,473.034302 893.707275,495.941833 
	C868.353516,522.262329 841.308960,546.512146 809.829102,565.417664 
	C807.119263,567.045105 804.419189,568.799194 801.499512,569.947937 
	C788.990112,574.869873 779.832886,584.537720 769.242676,592.202026 
	C739.114624,614.006042 705.770386,628.566711 668.873840,633.922302 
	C651.334106,636.468323 633.537109,638.766541 615.875488,638.635681 
	C577.743652,638.353027 542.354919,627.543213 509.340179,608.092590 
	C479.291565,590.389587 454.270844,566.963623 429.981506,542.445862 
	C416.875458,529.216492 403.334717,516.418518 390.033112,503.382050 
	C383.626465,497.103088 377.700836,490.274109 370.889130,484.479767 
	C355.850067,471.686920 338.923096,461.786346 320.757935,454.084167 
	C299.300934,444.986237 276.930328,439.796570 253.594910,438.890533 
	C247.327957,438.647156 241.070740,438.153259 233.658646,437.704803 
	C238.426529,455.421509 235.702179,470.628754 222.584656,482.713226 
	C215.664108,489.088715 207.162018,492.490692 197.699356,492.957550 
	C185.900009,493.539734 175.879944,489.285980 167.499008,481.104095 
	C159.219788,473.021484 155.146317,463.154114 155.993210,450.265656 
	C146.823517,453.683411 138.534500,456.486176 130.473206,459.836792 
	C113.344780,466.956085 97.226364,475.988739 82.281090,486.970459 
	C75.329933,492.078156 68.688339,497.649750 62.224800,503.370758 
	C39.992165,523.049438 22.468634,546.632263 6.340145,571.353638 
	C5.015059,573.384705 3.260959,575.135803 1.353096,577.008545 
	C1.000000,537.312439 1.000000,497.624878 1.252975,457.246826 
	C14.120155,438.997772 26.047892,420.891754 39.510578,404.009796 
	C59.350269,379.131134 83.793129,359.290497 112.047813,344.603790 
	C162.760361,318.243561 216.646683,308.211273 273.497375,314.901062 
	C306.045593,318.731140 335.547211,330.574982 362.627106,348.911224 
	C389.379120,367.025391 410.777893,390.918457 432.954437,413.904938 
	C455.188690,436.951263 477.546265,459.709686 504.658203,477.193359 
	C524.342224,489.887024 544.846985,500.774841 567.560059,507.059692 
	C572.974609,508.557953 578.363403,510.149139 583.621155,511.656586 
	C587.100159,538.652466 609.681763,554.830811 634.692444,547.973450 
	C649.657654,543.870239 659.264282,533.774109 662.971130,518.563110 
	C663.884644,514.814453 665.340881,513.316345 669.484497,512.765076 
	C688.641052,510.216583 707.431274,505.906189 725.605896,499.185913 
	C765.722778,484.352142 797.231812,457.568359 826.200439,427.111206 
	C853.385071,398.529755 879.053711,368.473083 908.893372,342.461914 
	C928.330994,325.518036 949.231567,310.995056 972.676514,300.029938 
	C1015.585571,279.961548 1059.317993,279.028259 1103.835938,293.469818 
	C1145.565552,307.006805 1180.890381,330.842346 1212.040771,361.305908 
	C1232.705566,381.515045 1250.377441,404.266296 1268.006836,427.055817 
	C1275.715942,437.021423 1283.411011,446.997772 1291.135620,456.999329 
	C1263.861206,474.591736 1267.375610,505.911835 1281.117798,520.380005 
	C1288.120361,527.752625 1296.797241,532.170288 1307.039062,532.946106 
	C1322.338257,534.105103 1334.526611,528.115417 1343.472900,516.450317 
	C1351.564941,521.798584 1359.282471,526.899292 1367.000000,532.000000 
	C1367.000000,575.687561 1367.000000,619.375122 1367.000000,663.531372 
z"/>
<path fill="#0295E6" opacity="1.000000" stroke="none" 
	d="
M1367.000000,531.531372 
	C1359.282471,526.899292 1351.564941,521.798584 1343.472900,516.450317 
	C1334.526611,528.115417 1322.338257,534.105103 1307.039062,532.946106 
	C1296.797241,532.170288 1288.120361,527.752625 1281.117798,520.380005 
	C1267.375610,505.911835 1263.861206,474.591736 1291.135620,456.999329 
	C1283.411011,446.997772 1275.715942,437.021423 1268.006836,427.055817 
	C1250.377441,404.266296 1232.705566,381.515045 1212.040771,361.305908 
	C1180.890381,330.842346 1145.565552,307.006805 1103.835938,293.469818 
	C1059.317993,279.028259 1015.585571,279.961548 972.676514,300.029938 
	C949.231567,310.995056 928.330994,325.518036 908.893372,342.461914 
	C879.053711,368.473083 853.385071,398.529755 826.200439,427.111206 
	C797.231812,457.568359 765.722778,484.352142 725.605896,499.185913 
	C707.431274,505.906189 688.641052,510.216583 669.484497,512.765076 
	C665.340881,513.316345 663.884644,514.814453 662.971130,518.563110 
	C659.264282,533.774109 649.657654,543.870239 634.692444,547.973450 
	C609.681763,554.830811 587.100159,538.652466 583.621155,511.656586 
	C578.363403,510.149139 572.974609,508.557953 567.560059,507.059692 
	C544.846985,500.774841 524.342224,489.887024 504.658203,477.193359 
	C477.546265,459.709686 455.188690,436.951263 432.954437,413.904938 
	C410.777893,390.918457 389.379120,367.025391 362.627106,348.911224 
	C335.547211,330.574982 306.045593,318.731140 273.497375,314.901062 
	C216.646683,308.211273 162.760361,318.243561 112.047813,344.603790 
	C83.793129,359.290497 59.350269,379.131134 39.510578,404.009796 
	C26.047892,420.891754 14.120155,438.997772 1.252975,456.778198 
	C1.000000,435.312439 1.000000,413.624878 0.999996,391.468658 
	C2.232938,389.637939 3.721754,388.431824 4.660900,386.890778 
	C21.965042,358.495087 41.321804,331.720490 65.815506,308.971375 
	C93.962044,282.829620 126.449585,264.243713 163.114975,252.836700 
	C193.770447,243.299423 225.174179,238.997711 257.194092,239.938065 
	C317.000763,241.694458 366.770905,266.169403 408.495667,308.140900 
	C428.455414,328.218719 448.029449,348.679871 467.969330,368.777710 
	C492.138855,393.138672 520.092468,412.255524 551.111755,426.734863 
	C568.665649,434.928711 587.334534,439.774475 606.513855,442.781403 
	C639.799500,447.999939 672.458801,444.202881 705.112549,437.373260 
	C737.816284,430.533203 767.601807,417.106506 793.697998,396.755402 
	C810.685364,383.507751 825.823364,367.774353 841.080872,352.448700 
	C865.978394,327.440094 889.745972,301.289429 915.018616,276.676575 
	C939.027466,253.294495 966.478333,234.563171 997.957153,222.182831 
	C1025.903320,211.191864 1054.745850,208.078079 1084.300537,212.418198 
	C1137.603271,220.245758 1181.844360,246.250549 1221.069702,281.876007 
	C1245.975586,304.496185 1266.216553,331.207642 1286.792847,357.615967 
	C1308.889893,385.976288 1330.393066,414.851410 1356.482178,439.824799 
	C1359.586426,442.796295 1363.021606,445.422241 1366.651611,448.104187 
	C1367.000000,475.687561 1367.000000,503.375122 1367.000000,531.531372 
z"/>
<path fill="#80D0FC" opacity="1.000000" stroke="none" 
	d="
M1318.272461,260.280640 
	C1297.281494,279.780518 1264.625854,272.695343 1253.490845,248.021561 
	C1241.193115,220.771057 1261.744263,190.481018 1291.790527,191.584229 
	C1308.628296,192.202469 1320.731934,200.570511 1327.009766,215.817520 
	C1333.651245,231.948227 1330.817505,247.106171 1318.272461,260.280640 
z"/>
<path fill="#DFF0FB" opacity="1.000000" stroke="none" 
	d="
M324.078247,90.328537 
	C332.780151,65.792313 356.209076,55.118610 379.176880,64.857880 
	C394.367493,71.299294 404.363831,88.212074 402.756866,104.752876 
	C401.051849,122.303322 388.590942,137.555557 372.080292,140.600876 
	C347.953522,145.050934 328.565521,132.163986 323.817139,110.485443 
	C322.443787,104.215637 323.860687,97.334663 324.078247,90.328537 
z"/>
<path fill="#940505" opacity="1.000000" stroke="none" 
	d="
M86.940079,708.933472 
	C75.217842,721.447815 60.881958,725.230774 45.258034,720.611938 
	C29.726858,716.020630 19.921070,704.870239 17.263767,688.583069 
	C14.183809,669.705261 24.580891,651.774231 42.067848,644.721252 
	C58.894836,637.934448 78.861244,643.845581 89.626732,658.801270 
	C100.498482,673.904541 99.505943,693.942871 86.940079,708.933472 
z"/>
</svg>