<?xml version="1.0" encoding="UTF-8"?>
<svg version="1.1" xmlns="http://www.w3.org/2000/svg" width="1366" height="768">
<path d="M0 0 C0.92506348 0.309375 1.85012695 0.61875 2.80322266 0.9375 C21.45729266 7.29310395 39.37814764 15.2847739 57.34855652 23.33334351 C59.09170871 24.11379787 60.83568773 24.89240831 62.58052063 25.6690979 C66.56548899 27.44540153 70.53373873 29.24427365 74.47119141 31.1237793 C82.05060944 34.69204795 88.47321562 37.04751366 97 36.4375 C97.88171875 36.40591797 98.7634375 36.37433594 99.671875 36.34179688 C101.78279761 36.26149004 103.89193752 36.1360737 106 36 C105.93232422 34.9171875 105.93232422 34.9171875 105.86328125 33.8125 C106.15087331 27.89632047 109.63860295 22.57084274 113.4375 18.1875 C114.283125 17.465625 115.12875 16.74375 116 16 C117.36125 14.700625 117.36125 14.700625 118.75 13.375 C124.93847549 8.34943974 132.6510881 7.46290801 140.375 7.5625 C141.20354492 7.57007324 142.03208984 7.57764648 142.88574219 7.58544922 C151.96572992 7.82869488 159.77890034 9.89949551 166.49609375 16.29296875 C170.65566103 21.01434771 173.14226091 24.62710472 173 31 C174.23637207 31.01981934 175.47274414 31.03963867 176.74658203 31.06005859 C181.49966124 31.13829595 186.25251645 31.22659711 191.00537109 31.31738281 C193.03136662 31.35480142 195.05740935 31.38977328 197.08349609 31.421875 C214.46783184 31.70016352 231.61374373 32.84091625 249 34 C249 121.12 249 208.24 249 298 C206.85063044 298 165.66771697 290.88947357 124.94287109 280.49481201 C123.19357224 280.04929914 121.44258786 279.61041712 119.69140625 279.17236328 C89.14386013 271.49959876 59.16785904 260.40152478 30.015625 248.58984375 C22.18635199 245.43256154 14.29587629 242.56018473 6.30859375 239.83203125 C2.40897783 238.49847999 -1.46808259 237.1115993 -5.33984375 235.69921875 C-51.00502579 219.06479448 -100.1903623 202.43820577 -149.25 202.6875 C-150.40086594 202.69073273 -150.40086594 202.69073273 -151.57498169 202.69403076 C-170.78197758 202.7804374 -187.78828911 205.84798298 -206 212 C-207.02754395 212.34514648 -208.05508789 212.69029297 -209.11376953 213.04589844 C-217.95797423 216.1048724 -226.49155369 219.70002063 -235.03320312 223.51123047 C-237.25921994 224.50411242 -239.48866935 225.48894073 -241.71875 226.47265625 C-247.59577708 229.07462774 -253.45361769 231.6704426 -259.16796875 234.6171875 C-265.28226846 237.7301552 -271.66302243 240.16841827 -278.0625 242.625 C-278.72895538 242.88156372 -279.39541077 243.13812744 -280.08206177 243.40246582 C-317.95679066 257.93704599 -356.00120308 267.92270076 -395.99163818 274.66149902 C-397.81087693 274.9681241 -399.6293618 275.27921368 -401.44775391 275.59082031 C-415.34566694 277.92536617 -428.92096633 278.55792173 -443 278 C-443.88107422 277.9680957 -444.76214844 277.93619141 -445.66992188 277.90332031 C-483.67791926 276.25018437 -521.25272749 264.54309608 -557.24121094 253.18408203 C-637.71276079 226.86889135 -637.71276079 226.86889135 -721 230 C-721.94762207 230.21430664 -722.89524414 230.42861328 -723.87158203 230.64941406 C-738.53623287 233.99035756 -752.82566694 238.29441665 -767.09228516 243.03710938 C-769.7275095 243.90976469 -772.36778191 244.76356959 -775.01171875 245.609375 C-787.77103793 249.72772697 -800.31904276 254.39652109 -812.86474609 259.11791992 C-822.99817076 262.92603607 -833.18789958 266.5466022 -843.41366577 270.09869385 C-846.88391386 271.30803328 -850.34925097 272.53109214 -853.81448364 273.75471497 C-942.90602223 305.21067221 -1023.23932311 317.58228123 -1115 289 C-1115.66 288.67 -1116.32 288.34 -1117 288 C-1117 210.45 -1117 132.9 -1117 53 C-1115.515 52.505 -1115.515 52.505 -1114 52 C-1114 51.34 -1114 50.68 -1114 50 C-1113.34 50 -1112.68 50 -1112 50 C-1111.74734375 49.39414062 -1111.4946875 48.78828125 -1111.234375 48.1640625 C-1109.82978933 45.70159269 -1108.66042712 44.82312482 -1106.25 43.375 C-1105.59515625 42.97023438 -1104.9403125 42.56546875 -1104.265625 42.1484375 C-1094.87973044 37.39075991 -1083.02674036 37.71377848 -1072.8203125 39.58203125 C-1066.00684609 41.96565608 -1061.03630052 46.98513054 -1056 52 C-1042.82482235 47.44427535 -1042.82482235 47.44427535 -1029.72998047 42.66455078 C-1003.87103687 32.96519755 -977.69286447 24.10637878 -951 17 C-950.0315918 16.73670898 -949.06318359 16.47341797 -948.06542969 16.20214844 C-921.23641736 8.94188544 -893.67767655 3.58846884 -866 1 C-865.12730469 0.9064624 -864.25460937 0.8129248 -863.35546875 0.71655273 C-854.47012314 -0.15877808 -845.59604256 -0.18611792 -836.67626953 -0.18530273 C-834.03270964 -0.18747314 -831.3895794 -0.20564642 -828.74609375 -0.22460938 C-812.60465427 -0.27868549 -796.72169805 1.11907593 -780.8125 3.875 C-779.90048828 4.02324219 -778.98847656 4.17148437 -778.04882812 4.32421875 C-773.78686457 5.04479816 -769.63288326 5.81982049 -765.47119141 7.00463867 C-752.91456067 10.56431405 -740.57257194 10.54667383 -727.587677 10.5562439 C-721.09300746 10.56683138 -714.59946684 10.65288331 -708.10546875 10.7421875 C-706.22226173 10.76755836 -706.22226173 10.76755836 -704.30101013 10.79344177 C-691.05012276 11.00017034 -678.10746455 11.96984371 -665 14 C-664.34992981 14.09839172 -663.69985962 14.19678345 -663.03009033 14.29815674 C-657.88852024 15.07671713 -652.75505186 15.89895287 -647.625 16.75 C-646.32570557 16.96551514 -645.02641113 17.18103027 -643.68774414 17.40307617 C-618.51806241 21.74762811 -593.6972651 28.22025559 -568.9520874 34.48962402 C-501.69049535 51.52968925 -432.80770373 68.85828577 -363 57 C-361.46424316 56.74259033 -361.46424316 56.74259033 -359.89746094 56.47998047 C-328.94359414 51.11981691 -299.93498963 41.16833458 -270.83789062 29.60385132 C-232.66284127 14.43155865 -194.22597417 1.56454706 -154 -7 C-153.03803711 -7.20850586 -152.07607422 -7.41701172 -151.08496094 -7.63183594 C-100.90168623 -18.32485854 -48.70283712 -16.31407615 0 0 Z " fill="#0095E6" transform="translate(1117,284)"/>
<path d="M0 0 C0.15855469 1.01578125 0.31710937 2.0315625 0.48046875 3.078125 C3.37897334 20.61247342 10.07100055 35.33253552 24 47 C39.50386073 58.08920208 56.71185735 61.54309386 75.44873047 58.61767578 C90.86237145 55.19887352 104.7199512 46.54575399 113.625 33.375 C114.07875 32.59125 114.5325 31.8075 115 31 C121.06704685 32.46675858 127.08562062 34.01114543 133.0625 35.8125 C157.51938119 42.8425066 183.48835027 48.43399159 209 49 C209.80937012 49.02578125 210.61874023 49.0515625 211.45263672 49.078125 C223.82476823 49.4446388 235.66015775 48.67225577 247.88671875 46.75390625 C253.23175223 45.96583027 258.61936986 45.48914819 264 45 C264 83.94 264 122.88 264 163 C221.85063044 163 180.66771697 155.88947357 139.94287109 145.49481201 C138.19357224 145.04929914 136.44258786 144.61041712 134.69140625 144.17236328 C104.14386013 136.49959876 74.16785904 125.40152478 45.015625 113.58984375 C37.18635199 110.43256154 29.29587629 107.56018473 21.30859375 104.83203125 C17.40897783 103.49847999 13.53191741 102.1115993 9.66015625 100.69921875 C-36.00502579 84.06479448 -85.1903623 67.43820577 -134.25 67.6875 C-135.40086594 67.69073273 -135.40086594 67.69073273 -136.57498169 67.69403076 C-155.78197758 67.7804374 -172.78828911 70.84798298 -191 77 C-192.02754395 77.34514648 -193.05508789 77.69029297 -194.11376953 78.04589844 C-202.95797423 81.1048724 -211.49155369 84.70002063 -220.03320312 88.51123047 C-222.25921994 89.50411242 -224.48866935 90.48894073 -226.71875 91.47265625 C-232.59577708 94.07462774 -238.45361769 96.6704426 -244.16796875 99.6171875 C-250.28226846 102.7301552 -256.66302243 105.16841827 -263.0625 107.625 C-263.72895538 107.88156372 -264.39541077 108.13812744 -265.08206177 108.40246582 C-302.95679066 122.93704599 -341.00120308 132.92270076 -380.99163818 139.66149902 C-382.81087693 139.9681241 -384.6293618 140.27921368 -386.44775391 140.59082031 C-400.34566694 142.92536617 -413.92096633 143.55792173 -428 143 C-428.88107422 142.9680957 -429.76214844 142.93619141 -430.66992188 142.90332031 C-468.67791926 141.25018437 -506.25272749 129.54309608 -542.24121094 118.18408203 C-622.71276079 91.86889135 -622.71276079 91.86889135 -706 95 C-707.42143311 95.32145996 -707.42143311 95.32145996 -708.87158203 95.64941406 C-723.53623287 98.99035756 -737.82566694 103.29441665 -752.09228516 108.03710938 C-754.7275095 108.90976469 -757.36778191 109.76356959 -760.01171875 110.609375 C-772.77103793 114.72772697 -785.31904276 119.39652109 -797.86474609 124.11791992 C-807.99817076 127.92603607 -818.18789958 131.5466022 -828.41366577 135.09869385 C-831.88391386 136.30803328 -835.34925097 137.53109214 -838.81448364 138.75471497 C-927.90602223 170.21067221 -1008.23932311 182.58228123 -1100 154 C-1100.66 153.67 -1101.32 153.34 -1102 153 C-1102 120.99 -1102 88.98 -1102 56 C-1092.04496113 57.24437986 -1082.10804243 58.50635243 -1072.18164062 59.94335938 C-1060.39333736 61.59527861 -1048.575681 62.16601064 -1036.6875 62.5625 C-1035.45837891 62.60568359 -1034.22925781 62.64886719 -1032.96289062 62.69335938 C-1029.97533514 62.79798194 -1026.98771857 62.90016327 -1024 63 C-1023.80954102 63.73387939 -1023.61908203 64.46775879 -1023.42285156 65.22387695 C-1023.03564941 66.68506958 -1023.03564941 66.68506958 -1022.640625 68.17578125 C-1022.26212402 69.61691284 -1022.26212402 69.61691284 -1021.87597656 71.0871582 C-1017.916271 84.25417244 -1009.9120733 92.51969461 -998 99 C-985.83073419 104.79792246 -971.53927413 104.40120218 -959 100 C-946.31611474 94.54949509 -938.07941736 85.66276534 -932.75 73.0625 C-931.02877027 68.04688856 -930.61864291 63.36745211 -930.390625 58.12109375 C-930.33092529 56.94589172 -930.33092529 56.94589172 -930.27001953 55.74694824 C-930.17363191 53.8316093 -930.08592513 51.91583682 -930 50 C-875.92616045 41.10822575 -875.92616045 41.10822575 -852.13323975 37.38989258 C-841.90850004 35.79182409 -831.70201745 34.11318562 -821.5 32.375 C-810.32826826 30.47945434 -799.13664825 28.86536191 -787.89648438 27.43115234 C-778.48281222 26.2283537 -769.10496998 24.83307499 -759.72253418 23.41137695 C-735.38904341 19.73456828 -711.05050854 16.11372446 -686.5625 13.625 C-685.79159027 13.54573273 -685.02068054 13.46646545 -684.22640991 13.38479614 C-673.16614148 12.26030348 -662.10505057 11.50947 -651 11 C-649.90260498 10.94827637 -648.80520996 10.89655273 -647.67456055 10.84326172 C-622.36252877 9.84258757 -599.0033599 15.47565767 -575 23 C-572.99105327 23.61383087 -570.98192909 24.22708118 -568.97265625 24.83984375 C-560.39370113 27.48044664 -551.85118242 30.23244121 -543.3125 33 C-542.44737793 33.28012939 -541.58225586 33.56025879 -540.69091797 33.84887695 C-526.86977904 38.33219599 -513.1346979 43.02460283 -499.46606445 47.953125 C-490.38199423 51.22087936 -481.23500098 54.18775358 -472 57 C-470.89253418 57.3393457 -469.78506836 57.67869141 -468.64404297 58.02832031 C-444.05563891 65.51983283 -419.51547595 72.53093022 -394 76 C-392.16840332 76.2638147 -392.16840332 76.2638147 -390.29980469 76.53295898 C-378.37755007 78.16189222 -366.52151141 78.43798684 -354.5 78.4375 C-353.47685699 78.43923218 -352.45371399 78.44096436 -351.39956665 78.44274902 C-332.83183543 78.42902791 -315.18706515 76.67283353 -297 73 C-296.05979004 72.81888672 -295.11958008 72.63777344 -294.15087891 72.45117188 C-284.03156877 70.48924518 -274.15758121 67.75114177 -264.3125 64.71337891 C-262.60031718 64.18519075 -260.88652085 63.66222671 -259.171875 63.14208984 C-250.27899286 60.43382799 -241.44440415 57.56171941 -232.625 54.625 C-231.47149048 54.24116653 -231.47149048 54.24116653 -230.29467773 53.84957886 C-209.08309257 46.77643269 -188.07519149 39.13683935 -167.07144165 31.4728241 C-107.15285046 9.61568489 -107.15285046 9.61568489 -84.06152344 4.47363281 C-81.31343122 3.84226156 -78.59319347 3.11802066 -75.86791992 2.39550781 C-72.59169724 1.53982893 -69.29894451 0.76261954 -66 0 C-65.36078613 -0.15243164 -64.72157227 -0.30486328 -64.06298828 -0.46191406 C-43.73003673 -5.13975583 -20.22121752 -5.04779278 0 0 Z " fill="#950303" transform="translate(1102,419)"/>
<path d="M0 0 C0.92506348 0.309375 1.85012695 0.61875 2.80322266 0.9375 C21.45729266 7.29310395 39.37814764 15.2847739 57.34855652 23.33334351 C59.09170871 24.11379787 60.83568773 24.89240831 62.58052063 25.6690979 C66.56548899 27.44540153 70.53373873 29.24427365 74.47119141 31.1237793 C82.05060944 34.69204795 88.47321562 37.04751366 97 36.4375 C97.88171875 36.40591797 98.7634375 36.37433594 99.671875 36.34179688 C101.78279761 36.26149004 103.89193752 36.1360737 106 36 C105.93232422 34.9171875 105.93232422 34.9171875 105.86328125 33.8125 C106.15087331 27.89632047 109.63860295 22.57084274 113.4375 18.1875 C114.283125 17.465625 115.12875 16.74375 116 16 C117.36125 14.700625 117.36125 14.700625 118.75 13.375 C124.93847549 8.34943974 132.6510881 7.46290801 140.375 7.5625 C141.20354492 7.57007324 142.03208984 7.57764648 142.88574219 7.58544922 C151.96572992 7.82869488 159.77890034 9.89949551 166.49609375 16.29296875 C170.65566103 21.01434771 173.14226091 24.62710472 173 31 C174.23637207 31.01981934 175.47274414 31.03963867 176.74658203 31.06005859 C200.90032934 31.45937814 224.90857854 32.13726123 249 34 C249 52.81 249 71.62 249 91 C239.99170728 92.12603659 239.99170728 92.12603659 236.88012695 92.16113281 C236.1724115 92.17059937 235.46469604 92.18006592 234.73553467 92.18981934 C233.99394104 92.19421021 233.25234741 92.19860107 232.48828125 92.203125 C231.29141693 92.21357849 231.29141693 92.21357849 230.07037354 92.22424316 C227.4843618 92.24163295 224.89856793 92.24797239 222.3125 92.25 C221.42384247 92.25100708 220.53518494 92.25201416 219.61959839 92.25305176 C203.57722466 92.24080993 187.90286228 91.23001825 172 89 C170.94393555 88.85546387 169.88787109 88.71092773 168.79980469 88.56201172 C152.0258239 86.21510985 135.51265897 82.73427453 119 79 C118.23745911 78.82795044 117.47491821 78.65590088 116.68927002 78.4786377 C110.76959183 77.14211385 104.85289288 75.79285351 98.9375 74.4375 C98.13318542 74.25385895 97.32887085 74.0702179 96.50018311 73.88101196 C85.27328029 71.31220766 74.12997453 68.49742985 63.00222778 65.52987671 C58.92986083 64.45215098 54.84089538 63.44209044 50.75 62.4375 C45.11730254 61.05377311 39.51338448 59.59487057 33.91796875 58.06640625 C25.86286827 55.89265202 17.73789202 54.15441787 9.5625 52.5 C8.82399811 52.34970337 8.08549622 52.19940674 7.32461548 52.04455566 C-34.99133973 43.45055673 -76.93435992 38.896442 -120 44 C-120.90878906 44.10715332 -121.81757812 44.21430664 -122.75390625 44.32470703 C-164.70568672 49.44932886 -203.74201074 64.51086631 -241 84 C-275.164457 101.81567598 -317.35975843 122.25820924 -356.69238281 123.85961914 C-359.00459885 123.95775349 -361.3147443 124.11419453 -363.62036133 124.31445312 C-378.02634323 125.24323974 -390.288163 120.53684052 -403.6875 115.75 C-407.26323206 114.50739851 -410.84236964 113.27498864 -414.421875 112.04330444 C-416.81647507 111.21888098 -419.21003696 110.39143576 -421.60253906 109.5609436 C-432.61816172 105.74655068 -443.71915584 102.25364309 -454.875 98.875 C-456.54126353 98.36817643 -458.20752342 97.86134091 -459.8737793 97.35449219 C-463.58043404 96.22930876 -467.28931283 95.1118089 -471 94 C-470.98187256 95.019729 -470.96374512 96.03945801 -470.94506836 97.09008789 C-470.93040467 98.44677285 -470.91618675 99.80346267 -470.90234375 101.16015625 C-470.88925171 101.83002563 -470.87615967 102.49989502 -470.8626709 103.19006348 C-470.79459415 112.10267101 -473.89040326 118.78459785 -479.9296875 125.2421875 C-488.5301213 132.54444262 -498.08537716 133.81202883 -509 133 C-517.39079618 131.11270846 -524.6827432 124.74990241 -529.51953125 117.82421875 C-533.25093145 110.19001127 -533.3451495 100.28431954 -532 92 C-529.98060066 86.68878983 -526.99039814 82.94724365 -523 79 C-566.38472932 66.67771002 -611.0576534 57.57759034 -655.98143005 53.28923035 C-657.88324633 53.107004 -659.7846575 52.92044772 -661.68544006 52.72773743 C-679.67524438 50.92213293 -697.57442408 50.65596864 -715.63452148 50.68432617 C-718.8205383 50.68893714 -722.00617141 50.68209131 -725.19213867 50.66381836 C-755.23243351 50.49352817 -784.68031907 52.6507111 -814.4375 56.875 C-815.3584848 57.00317108 -816.2794696 57.13134216 -817.22836304 57.26339722 C-832.57464316 59.40105406 -847.8238668 61.85480504 -863 65 C-864.48717529 65.30719971 -864.48717529 65.30719971 -866.00439453 65.62060547 C-879.73255763 68.48333979 -893.36385805 71.73227472 -907 75 C-907.91410645 75.21869751 -908.82821289 75.43739502 -909.77001953 75.66271973 C-934.41209256 81.56085566 -958.92756416 87.51746894 -983.06665039 95.25976562 C-984.20928345 95.62618164 -984.20928345 95.62618164 -985.375 96 C-986.11548584 96.23783203 -986.85597168 96.47566406 -987.61889648 96.72070312 C-994.59243315 98.93043376 -1001.62944551 100.89196778 -1008.6875 102.8125 C-1009.78690918 103.11478516 -1010.88631836 103.41707031 -1012.01904297 103.72851562 C-1044.47576014 112.439454 -1084.88826344 107.02793414 -1117 99 C-1117 83.82 -1117 68.64 -1117 53 C-1115.515 52.505 -1115.515 52.505 -1114 52 C-1114 51.34 -1114 50.68 -1114 50 C-1113.34 50 -1112.68 50 -1112 50 C-1111.74734375 49.39414062 -1111.4946875 48.78828125 -1111.234375 48.1640625 C-1109.82978933 45.70159269 -1108.66042712 44.82312482 -1106.25 43.375 C-1105.59515625 42.97023438 -1104.9403125 42.56546875 -1104.265625 42.1484375 C-1094.87973044 37.39075991 -1083.02674036 37.71377848 -1072.8203125 39.58203125 C-1066.00684609 41.96565608 -1061.03630052 46.98513054 -1056 52 C-1042.82482235 47.44427535 -1042.82482235 47.44427535 -1029.72998047 42.66455078 C-1003.87103687 32.96519755 -977.69286447 24.10637878 -951 17 C-950.0315918 16.73670898 -949.06318359 16.47341797 -948.06542969 16.20214844 C-921.23641736 8.94188544 -893.67767655 3.58846884 -866 1 C-865.12730469 0.9064624 -864.25460937 0.8129248 -863.35546875 0.71655273 C-854.47012314 -0.15877808 -845.59604256 -0.18611792 -836.67626953 -0.18530273 C-834.03270964 -0.18747314 -831.3895794 -0.20564642 -828.74609375 -0.22460938 C-812.60465427 -0.27868549 -796.72169805 1.11907593 -780.8125 3.875 C-779.90048828 4.02324219 -778.98847656 4.17148437 -778.04882812 4.32421875 C-773.78686457 5.04479816 -769.63288326 5.81982049 -765.47119141 7.00463867 C-752.91456067 10.56431405 -740.57257194 10.54667383 -727.587677 10.5562439 C-721.09300746 10.56683138 -714.59946684 10.65288331 -708.10546875 10.7421875 C-706.22226173 10.76755836 -706.22226173 10.76755836 -704.30101013 10.79344177 C-691.05012276 11.00017034 -678.10746455 11.96984371 -665 14 C-664.34992981 14.09839172 -663.69985962 14.19678345 -663.03009033 14.29815674 C-657.88852024 15.07671713 -652.75505186 15.89895287 -647.625 16.75 C-646.32570557 16.96551514 -645.02641113 17.18103027 -643.68774414 17.40307617 C-618.51806241 21.74762811 -593.6972651 28.22025559 -568.9520874 34.48962402 C-501.69049535 51.52968925 -432.80770373 68.85828577 -363 57 C-361.46424316 56.74259033 -361.46424316 56.74259033 -359.89746094 56.47998047 C-328.94359414 51.11981691 -299.93498963 41.16833458 -270.83789062 29.60385132 C-232.66284127 14.43155865 -194.22597417 1.56454706 -154 -7 C-153.03803711 -7.20850586 -152.07607422 -7.41701172 -151.08496094 -7.63183594 C-100.90168623 -18.32485854 -48.70283712 -16.31407615 0 0 Z " fill="#7DD2FE" transform="translate(1117,284)"/>
<path d="M0 0 C7.18681327 4.47928119 11.4857106 10.97431536 14 19 C15.53658218 29.39269431 14.2601647 38.25712606 8 47 C5.57511467 49.801073 3.07993176 51.94861688 0 54 C-0.64324219 54.43183594 -1.28648438 54.86367188 -1.94921875 55.30859375 C-9.54548505 59.49015749 -19.75850856 59.49461714 -27.97265625 57.15234375 C-36.2062411 53.39823628 -42.15697155 47.47220746 -46 39.3125 C-48.94721889 31.39996658 -49.58356182 23.14840426 -46.4375 15.1875 C-42.26807536 7.18631538 -35.63929831 0.21210044 -27.171875 -3.109375 C-17.91642421 -5.70819616 -8.45453305 -4.42541964 0 0 Z " fill="#960405" transform="translate(48,328)"/>
<path d="M0 0 C7.03605836 5.02729055 11.54262155 11.37058481 13.55859375 19.828125 C14.68338539 29.25550232 13.41771246 37.10598347 8.0859375 45.01171875 C3.26889773 51.03586541 -3.67979369 56.4679948 -11.44140625 57.828125 C-22.40856563 58.80905861 -30.232572 56.78911763 -38.75390625 49.765625 C-45.82005095 42.92203604 -48.65774571 36.20479888 -49.12890625 26.390625 C-48.77381675 16.95676064 -45.5183828 9.34482426 -38.62890625 2.828125 C-37.26667627 1.78281156 -35.87050779 0.77997556 -34.44140625 -0.171875 C-33.47654297 -0.81962891 -33.47654297 -0.81962891 -32.4921875 -1.48046875 C-22.44301202 -7.01230058 -9.60152649 -5.5759204 0 0 Z " fill="#960405" transform="translate(1275.44140625,297.171875)"/>
<path d="M0 0 C6.62482913 4.37125478 11.12615678 10.29438763 13.609375 17.85546875 C15.48109226 28.13119652 14.30695838 37.522426 8.52734375 46.21484375 C3.63139864 52.43026343 -2.59678304 55.53226101 -10 58 C-21.88328432 58.93172281 -29.14844511 57.41166814 -38.3125 49.875 C-45.70068487 42.76257942 -47.37721678 35.99733625 -47.625 26 C-47.56795897 17.03167833 -45.25455579 11.59349315 -39.13671875 4.98828125 C-28.03708423 -5.62199063 -13.62839705 -7.18626865 0 0 Z " fill="#950404" transform="translate(632,359)"/>
<path d="M0 0 C1.05590332 0.30728027 2.11180664 0.61456055 3.19970703 0.93115234 C11.14517397 3.24779317 19.07763494 5.60561867 27 8 C28.019729 8.30462158 29.03945801 8.60924316 30.09008789 8.9230957 C39.37449121 11.72822014 48.53346113 14.86267685 57.6875 18.0625 C58.53348755 18.35735291 59.3794751 18.65220581 60.25109863 18.95599365 C75.35946346 24.23389846 90.31174959 29.88602079 105.25 35.625 C131.34285224 45.64112028 157.6168203 55.08418038 184.62646484 62.35107422 C187.078277 63.02140097 189.51745681 63.7279055 191.95703125 64.44140625 C223.18607689 73.45682881 256.2665561 79.84344481 288.75390625 81.53515625 C289.54022934 81.57813339 290.32655243 81.62111053 291.13670349 81.66539001 C293.61184746 81.80013229 296.08716176 81.93138024 298.5625 82.0625 C300.25587197 82.15406428 301.94923148 82.24585914 303.64257812 82.33789062 C307.76157986 82.56125511 311.88073805 82.78148923 316 83 C316 83.66 316 84.32 316 85 C274.12212625 85.82232916 232.33019595 77.80332427 191.94287109 67.49481201 C190.19357224 67.04929914 188.44258786 66.61041712 186.69140625 66.17236328 C156.14386013 58.49959876 126.16785904 47.40152478 97.015625 35.58984375 C89.18635199 32.43256154 81.29587629 29.56018473 73.30859375 26.83203125 C69.40897783 25.49847999 65.53191741 24.1115993 61.66015625 22.69921875 C15.99497421 6.06479448 -33.1903623 -10.56179423 -82.25 -10.3125 C-83.40086594 -10.30926727 -83.40086594 -10.30926727 -84.57498169 -10.30596924 C-103.78197758 -10.2195626 -120.78828911 -7.15201702 -139 -1 C-140.02754395 -0.65485352 -141.05508789 -0.30970703 -142.11376953 0.04589844 C-150.95797423 3.1048724 -159.49155369 6.70002063 -168.03320312 10.51123047 C-170.25921994 11.50411242 -172.48866935 12.48894073 -174.71875 13.47265625 C-180.59577708 16.07462774 -186.45361769 18.6704426 -192.16796875 21.6171875 C-198.28226846 24.7301552 -204.66302243 27.16841827 -211.0625 29.625 C-211.72895538 29.88156372 -212.39541077 30.13812744 -213.08206177 30.40246582 C-250.95679066 44.93704599 -289.00120308 54.92270076 -328.99163818 61.66149902 C-330.81087693 61.9681241 -332.6293618 62.27921368 -334.44775391 62.59082031 C-348.34566694 64.92536617 -361.92096633 65.55792173 -376 65 C-376.88107422 64.9680957 -377.76214844 64.93619141 -378.66992188 64.90332031 C-416.67791926 63.25018437 -454.25272749 51.54309608 -490.24121094 40.18408203 C-570.71276079 13.86889135 -570.71276079 13.86889135 -654 17 C-654.94762207 17.21430664 -655.89524414 17.42861328 -656.87158203 17.64941406 C-671.53623287 20.99035756 -685.82566694 25.29441665 -700.09228516 30.03710938 C-702.7275095 30.90976469 -705.36778191 31.76356959 -708.01171875 32.609375 C-720.77103793 36.72772697 -733.31904276 41.39652109 -745.86474609 46.11791992 C-755.99817076 49.92603607 -766.18789958 53.5466022 -776.41366577 57.09869385 C-779.88391386 58.30803328 -783.34925097 59.53109214 -786.81448364 60.75471497 C-875.90602223 92.21067221 -956.23932311 104.58228123 -1048 76 C-1048.66 75.67 -1049.32 75.34 -1050 75 C-1050 74.34 -1050 73.68 -1050 73 C-1041.86564617 74.81237241 -1033.79847534 76.71979312 -1025.81616211 79.12353516 C-1016.22354651 82.00272295 -1006.56450631 84.27104655 -996.75 86.25 C-994.9407605 86.61907471 -994.9407605 86.61907471 -993.0949707 86.99560547 C-976.18094979 90.31001703 -959.86873537 91.34912157 -942.65429688 91.31567383 C-939.26920191 91.3125179 -935.88498751 91.33604871 -932.5 91.36132812 C-918.73485432 91.40197435 -905.54792918 90.42475877 -892 88 C-890.72962891 87.78093994 -889.45925781 87.56187988 -888.15039062 87.33618164 C-841.21821732 78.84315621 -796.13084321 61.25394206 -751.54104614 44.7769928 C-742.80792837 41.55312293 -734.05623993 38.38134286 -725.296875 35.22955322 C-723.63041412 34.62951069 -721.9643804 34.0282802 -720.29882812 33.42572021 C-695.68802566 24.52338932 -670.52201466 17.75994398 -645 12 C-643.24042969 11.59394531 -643.24042969 11.59394531 -641.4453125 11.1796875 C-597.60092677 2.74350488 -548.74163609 18.92285742 -507.29467773 32.05712891 C-501.76822991 33.79410861 -496.20192776 35.37140763 -490.625 36.9375 C-484.11930474 38.76603938 -477.69970174 40.73188969 -471.3125 42.9375 C-441.96246896 52.92398075 -410.08003162 60.84945589 -379 62 C-377.91493164 62.0530127 -376.82986328 62.10602539 -375.71191406 62.16064453 C-354.53473863 63.10706075 -334.66247653 60.27631333 -313.92114258 56.3605957 C-311.28858059 55.8664676 -308.65191904 55.39562763 -306.015625 54.921875 C-288.77204818 51.73058587 -271.80358304 46.97808688 -255 42 C-254.30213379 41.80067871 -253.60426758 41.60135742 -252.88525391 41.39599609 C-245.47741672 39.24260769 -238.23895982 36.65985284 -231 34 C-230.34627411 33.7601236 -229.69254822 33.52024719 -229.01901245 33.27310181 C-211.47793905 26.8161038 -194.36050393 19.46883277 -177.36499023 11.69799805 C-117.80549353 -15.52501131 -62.96302428 -18.50024664 0 0 Z " fill="#F6E9E9" transform="translate(1050,497)"/>
<path d="M0 0 C0.92506348 0.309375 1.85012695 0.61875 2.80322266 0.9375 C21.45729266 7.29310395 39.37814764 15.2847739 57.34855652 23.33334351 C59.09170871 24.11379787 60.83568773 24.89240831 62.58052063 25.6690979 C66.56548899 27.44540153 70.53373873 29.24427365 74.47119141 31.1237793 C82.05060944 34.69204795 88.47321562 37.04751366 97 36.4375 C97.88171875 36.40591797 98.7634375 36.37433594 99.671875 36.34179688 C101.78279761 36.26149004 103.89193752 36.1360737 106 36 C105.95488281 35.278125 105.90976563 34.55625 105.86328125 33.8125 C106.15087331 27.89632047 109.63860295 22.57084274 113.4375 18.1875 C114.283125 17.465625 115.12875 16.74375 116 16 C117.36125 14.700625 117.36125 14.700625 118.75 13.375 C124.93847549 8.34943974 132.6510881 7.46290801 140.375 7.5625 C141.20354492 7.57007324 142.03208984 7.57764648 142.88574219 7.58544922 C151.96572992 7.82869488 159.77890034 9.89949551 166.49609375 16.29296875 C170.65566103 21.01434771 173.14226091 24.62710472 173 31 C174.23637207 31.01981934 175.47274414 31.03963867 176.74658203 31.06005859 C200.88459807 31.45911807 224.93310664 32.00555419 249 34 C249 34.66 249 35.32 249 36 C245.72897261 35.85833595 242.45822964 35.71086756 239.1875 35.5625 C237.82334961 35.50352539 237.82334961 35.50352539 236.43164062 35.44335938 C235.06362305 35.38051758 235.06362305 35.38051758 233.66796875 35.31640625 C232.43469849 35.26141968 232.43469849 35.26141968 231.17651367 35.20532227 C228.38830046 35.02509882 225.62213024 34.77180489 222.84179688 34.5 C217.17992913 33.97618917 211.54652985 33.78363513 205.86328125 33.68359375 C204.35510078 33.6524221 204.35510078 33.6524221 202.81645203 33.62062073 C199.64852807 33.55596481 196.4805313 33.49663658 193.3125 33.4375 C191.14647727 33.39423464 188.98046152 33.350618 186.81445312 33.30664062 C181.54304258 33.20037143 176.27156189 33.09845969 171 33 C170.61038086 31.98244629 170.61038086 31.98244629 170.21289062 30.94433594 C169.86419922 30.05004883 169.51550781 29.15576172 169.15625 28.234375 C168.81400391 27.34975586 168.47175781 26.46513672 168.11914062 25.55371094 C164.93247285 18.28221335 159.59734234 14.39096031 152.4765625 11.11328125 C143.6494818 8.28663181 134.81977293 8.67538988 126.375 12.5625 C118.29417006 17.24894338 114.02353103 23.22400737 111 32 C110.63748269 33.66056318 110.29655068 35.32639713 110 37 C107.16776345 37.36613314 104.33489817 37.71813541 101.5 38.0625 C100.70851563 38.16626953 99.91703125 38.27003906 99.1015625 38.37695312 C88.81413245 39.59963948 82.03258432 37.46948395 72.71966553 33.11221313 C70.17408825 31.92238759 67.61651319 30.75940908 65.05960083 29.5941925 C63.72057189 28.98364842 62.38209641 28.37188913 61.04415894 27.75895691 C9.21147231 3.9801826 9.21147231 3.9801826 -46 -9 C-46.9787207 -9.13245117 -47.95744141 -9.26490234 -48.96582031 -9.40136719 C-64.71461848 -11.50026362 -80.12294594 -12.47156474 -96 -12 C-97.34895602 -11.98030949 -98.69791417 -11.96076445 -100.046875 -11.94140625 C-123.11825563 -11.16451282 -146.62027732 -6.38098099 -169 -1 C-170.0091748 -0.7613623 -171.01834961 -0.52272461 -172.05810547 -0.27685547 C-175.20818187 0.47107451 -178.35468926 1.23228984 -181.5 2 C-182.43078369 2.22486084 -183.36156738 2.44972168 -184.32055664 2.68139648 C-191.024249 4.35805728 -197.54906509 6.45521316 -204.08886719 8.67871094 C-207.2764415 9.76200597 -210.47588815 10.80397282 -213.68315125 11.82777405 C-232.40565439 17.80587585 -250.76952559 24.50145405 -269.0625 31.6875 C-285.90621587 38.30326641 -302.70306783 44.65386673 -320 50 C-321.26863135 50.41152265 -322.53691399 50.82412342 -323.8046875 51.23828125 C-347.28172622 58.52911222 -372.93456042 62.10641321 -397.47265625 62.203125 C-398.63462021 62.20882507 -399.79658417 62.21452515 -400.99375916 62.22039795 C-403.4451305 62.22978809 -405.89651413 62.2363579 -408.34790039 62.24023438 C-412.00105464 62.24983846 -415.65362029 62.28087853 -419.30664062 62.3125 C-435.73301075 62.38648891 -451.72639754 61.19950148 -468 59 C-469.17116867 58.84636993 -469.17116867 58.84636993 -470.36599731 58.68963623 C-474.5894404 58.13211487 -478.79584803 57.49979589 -483 56.8125 C-484.26432861 56.6067334 -485.52865723 56.4009668 -486.83129883 56.18896484 C-502.71077761 53.5331839 -518.36117456 49.795867 -534 46 C-534.67341431 45.83697388 -535.34682861 45.67394775 -536.04064941 45.50598145 C-548.12592987 42.57726532 -560.18079049 39.58932877 -572.11328125 36.0859375 C-602.6295063 27.38155971 -633.74369626 21.28826392 -665 16 C-665 15.67 -665 15.34 -665 15 C-655.59992845 15.52014256 -646.48432405 16.75698531 -637.25 18.5625 C-636.52288818 18.70294739 -635.79577637 18.84339478 -635.04663086 18.98809814 C-603.05609643 25.23416646 -571.44161944 33.79068469 -539.86328125 41.828125 C-512.47802595 48.79297129 -485.08146527 54.56798936 -457 58 C-456.32281921 58.08720306 -455.64563843 58.17440613 -454.94793701 58.26425171 C-441.45184554 59.9830668 -428.0960722 60.36143229 -414.5 60.3125 C-412.919272 60.30976578 -412.919272 60.30976578 -411.30661011 60.30697632 C-395.03026356 60.25966091 -379.0812164 59.73172801 -363 57 C-361.97616211 56.82839355 -360.95232422 56.65678711 -359.89746094 56.47998047 C-328.94359414 51.11981691 -299.93498963 41.16833458 -270.83789062 29.60385132 C-232.66284127 14.43155865 -194.22597417 1.56454706 -154 -7 C-153.03803711 -7.20850586 -152.07607422 -7.41701172 -151.08496094 -7.63183594 C-100.90168623 -18.32485854 -48.70283712 -16.31407615 0 0 Z " fill="#F2FAFF" transform="translate(1117,284)"/>
<path d="M0 0 C7.37491819 0.60777309 14.12948859 2.65555919 21.1875 4.8125 C22.90163086 5.32780273 22.90163086 5.32780273 24.65039062 5.85351562 C28.10292337 6.89376433 31.55142551 7.94671523 35 9 C36.55352173 9.46563354 36.55352173 9.46563354 38.13842773 9.94067383 C47.40683113 12.73998264 56.54949818 15.86828266 65.6875 19.0625 C66.53348755 19.35735291 67.3794751 19.65220581 68.25109863 19.95599365 C83.35946346 25.23389846 98.31174959 30.88602079 113.25 36.625 C139.34285224 46.64112028 165.6168203 56.08418038 192.62646484 63.35107422 C195.078277 64.02140097 197.51745681 64.7279055 199.95703125 65.44140625 C231.18607689 74.45682881 264.2665561 80.84344481 296.75390625 82.53515625 C297.93339088 82.59962196 297.93339088 82.59962196 299.13670349 82.66539001 C301.61184746 82.80013229 304.08716176 82.93138024 306.5625 83.0625 C308.25587197 83.15406428 309.94923148 83.24585914 311.64257812 83.33789062 C315.76157986 83.56125511 319.88073805 83.78148923 324 84 C324 84.66 324 85.32 324 86 C282.12212625 86.82232916 240.33019595 78.80332427 199.94287109 68.49481201 C198.19357224 68.04929914 196.44258786 67.61041712 194.69140625 67.17236328 C164.14386013 59.49959876 134.16785904 48.40152478 105.015625 36.58984375 C97.18635199 33.43256154 89.29587629 30.56018473 81.30859375 27.83203125 C77.40897783 26.49847999 73.53191741 25.1115993 69.66015625 23.69921875 C56.91639353 19.05831032 44.13132398 14.66903672 31.1875 10.625 C30.5339856 10.41998871 29.88047119 10.21497742 29.20715332 10.00375366 C23.41728694 8.19261486 17.62950068 6.40155585 11.75244141 4.89355469 C10.71317253 4.62628067 10.71317253 4.62628067 9.65290833 4.35360718 C7.71915014 3.86280766 5.78213729 3.38488409 3.8449707 2.90771484 C2.90613037 2.60816895 1.96729004 2.30862305 1 2 C0.67 1.34 0.34 0.68 0 0 Z " fill="#FBF6F6" transform="translate(1042,496)"/>
<path d="M0 0 C8.13435383 1.81237241 16.20152466 3.71979312 24.18383789 6.12353516 C33.77645349 9.00272295 43.43549369 11.27104655 53.25 13.25 C54.45615967 13.4960498 55.66231934 13.74209961 56.9050293 13.99560547 C73.81905021 17.31001703 90.13126463 18.34912157 107.34570312 18.31567383 C110.73079809 18.3125179 114.11501249 18.33604871 117.5 18.36132812 C136.55150762 18.418197 154.5414621 15.98324795 173.125 11.9375 C175.52317006 11.42452936 177.92160407 10.912791 180.3203125 10.40234375 C181.43954102 10.16370605 182.55876953 9.92506836 183.71191406 9.67919922 C188.45925796 8.69857027 193.22460634 7.83195647 198 7 C198 7.66 198 8.32 198 9 C183.93878915 12.59448132 169.90536459 16.08692116 155.5625 18.375 C154.60158447 18.53000977 153.64066895 18.68501953 152.65063477 18.84472656 C106.30377826 25.85524254 42.924829 23.4624145 0 2 C0 1.34 0 0.68 0 0 Z " fill="#F7ECEC" transform="translate(0,570)"/>
<path d="M0 0 C0.82854492 0.00757324 1.65708984 0.01514648 2.51074219 0.02294922 C11.59072992 0.26619488 19.40390034 2.33699551 26.12109375 8.73046875 C30.28066103 13.45184771 32.76726091 17.06460472 32.625 23.4375 C33.86137207 23.45731934 35.09774414 23.47713867 36.37158203 23.49755859 C60.50959807 23.89661807 84.55810664 24.44305419 108.625 26.4375 C108.625 27.0975 108.625 27.7575 108.625 28.4375 C105.35397261 28.29583595 102.08322964 28.14836756 98.8125 28 C97.90306641 27.96068359 96.99363281 27.92136719 96.05664062 27.88085938 C95.14462891 27.83896484 94.23261719 27.79707031 93.29296875 27.75390625 C92.47078857 27.71724854 91.6486084 27.68059082 90.80151367 27.64282227 C88.01330046 27.46259882 85.24713024 27.20930489 82.46679688 26.9375 C76.80492913 26.41368917 71.17152985 26.22113513 65.48828125 26.12109375 C64.48282761 26.10031265 63.47737396 26.07953156 62.44145203 26.05812073 C59.27352807 25.99346481 56.1055313 25.93413658 52.9375 25.875 C50.77147727 25.83173464 48.60546152 25.788118 46.43945312 25.74414062 C41.16804258 25.63787143 35.89656189 25.53595969 30.625 25.4375 C30.36525391 24.75913086 30.10550781 24.08076172 29.83789062 23.38183594 C29.31485352 22.04040527 29.31485352 22.04040527 28.78125 20.671875 C28.43900391 19.78725586 28.09675781 18.90263672 27.74414062 17.99121094 C24.55747285 10.71971335 19.22234234 6.82846031 12.1015625 3.55078125 C3.2744818 0.72413181 -5.55522707 1.11288988 -14 5 C-22.14601011 9.72424435 -26.23964421 15.65522071 -29.375 24.4375 C-30.13519964 27.29506913 -30.13519964 27.29506913 -30.375 29.4375 C-32.025 29.4375 -33.675 29.4375 -35.375 29.4375 C-31.35769468 14.60437268 -31.35769468 14.60437268 -25.375 9.4375 C-24.859375 8.9321875 -24.34375 8.426875 -23.8125 7.90625 C-16.96480787 1.43898521 -9.21448093 -0.11881136 0 0 Z " fill="#FBFAFA" transform="translate(1257.375,291.5625)"/>
<path d="M0 0 C-1.05050537 0.3717334 -2.10101074 0.7434668 -3.18334961 1.12646484 C-8.10362458 2.86974412 -13.02118506 4.62058597 -17.9375 6.375 C-18.82126312 6.69035706 -19.70502625 7.00571411 -20.61557007 7.33062744 C-32.82036532 11.69427399 -44.92891068 16.20960095 -56.91186523 21.15380859 C-57.83427002 21.53359863 -58.7566748 21.91338867 -59.70703125 22.3046875 C-60.4956958 22.63452637 -61.28436035 22.96436523 -62.09692383 23.30419922 C-64 24 -64 24 -66 24 C-67.2265625 22.42578125 -67.2265625 22.42578125 -68.625 20.3125 C-73.25092107 13.95326544 -79.24379087 10.39866066 -87 9 C-97.70602565 8.09741677 -105.01302938 9.4943727 -113.3125 16.375 C-118.21811576 20.94902344 -121.14941958 25.52296852 -123 32 C-123.33 32 -123.66 32 -124 32 C-124 28.37 -124 24.74 -124 21 C-123.01 20.67 -122.02 20.34 -121 20 C-121 19.34 -121 18.68 -121 18 C-120.34 18 -119.68 18 -119 18 C-118.74734375 17.39414062 -118.4946875 16.78828125 -118.234375 16.1640625 C-116.82978933 13.70159269 -115.66042712 12.82312482 -113.25 11.375 C-112.26773438 10.76785156 -112.26773438 10.76785156 -111.265625 10.1484375 C-101.87973044 5.39075991 -90.02674036 5.71377848 -79.8203125 7.58203125 C-73.00684609 9.96565608 -68.03630052 14.98513054 -63 20 C-53.13636146 16.58046672 -43.28706261 13.13368748 -33.5 9.5 C-31.15789427 8.63534015 -28.81523874 7.77219755 -26.47216797 6.91015625 C-24.74397697 6.27390343 -23.01649407 5.63572542 -21.28955078 4.99609375 C-18.55114768 3.98617261 -15.80761439 2.99151298 -13.0625 2 C-12.21558594 1.68482422 -11.36867188 1.36964844 -10.49609375 1.04492188 C-9.70460938 0.76197266 -8.913125 0.47902344 -8.09765625 0.1875 C-7.40164307 -0.06644531 -6.70562988 -0.32039063 -5.98852539 -0.58203125 C-3.67350326 -1.06862645 -2.22538663 -0.73276066 0 0 Z " fill="#F8F4F4" transform="translate(124,316)"/>
<path d="M0 0 C-2.69185411 1.86196777 -3.93248541 2.00766206 -7.24194336 1.63208008 C-8.51175049 1.34743896 -9.78155762 1.06279785 -11.08984375 0.76953125 C-11.7813855 0.61921448 -12.47292725 0.46889771 -13.1854248 0.31402588 C-14.66751706 -0.00870979 -16.14840234 -0.33702931 -17.62814331 -0.67037964 C-21.51514657 -1.54077291 -25.41447873 -2.35252683 -29.3125 -3.171875 C-30.46207436 -3.41495644 -30.46207436 -3.41495644 -31.63487244 -3.66294861 C-62.98658033 -10.28628556 -95.86613214 -11.0991228 -126.50756836 -0.89404297 C-127.29784424 -0.63510254 -128.08812012 -0.37616211 -128.90234375 -0.109375 C-129.59835693 0.12813477 -130.29437012 0.36564453 -131.01147461 0.61035156 C-133.31632184 1.06198277 -134.78765133 0.72227315 -137 0 C-100.59543014 -24.26971324 -38.95924062 -9.2705087 0 0 Z " fill="#F0DCDC" transform="translate(1044,495)"/>
<path d="M0 0 C0.92006836 0.23654297 1.84013672 0.47308594 2.78808594 0.71679688 C13.89188975 3.54630403 25.04883263 6.08686593 36.25 8.5 C37.16232391 8.69698486 38.07464783 8.89396973 39.01461792 9.09692383 C54.60137297 12.44400376 70.15509057 15.16996122 86 17 C86.67259354 17.08056137 87.34518707 17.16112274 88.03816223 17.24412537 C93.27320676 17.85431449 98.49131654 18.2611178 103.75390625 18.53515625 C104.54022934 18.57813339 105.32655243 18.62111053 106.13670349 18.66539001 C108.61184746 18.80013229 111.08716176 18.93138024 113.5625 19.0625 C115.25587197 19.15406428 116.94923148 19.24585914 118.64257812 19.33789062 C122.76157986 19.56125511 126.88073805 19.78148923 131 20 C131 20.66 131 21.32 131 22 C91.06216125 22.78423392 51.07602791 15.48375559 12.46484375 5.953125 C11.78018539 5.78561737 11.09552704 5.61810974 10.39012146 5.44552612 C6.79944688 4.54191116 3.40016503 3.46800258 0 2 C0 1.34 0 0.68 0 0 Z " fill="#F9F1F1" transform="translate(1235,560)"/>
<path d="M0 0 C1.71986758 2.57980137 2.82916881 4.87161481 4.0625 7.6875 C7.40917462 14.44008243 12.67857532 19.63783411 19.5 22.9375 C23.66654452 24.20234387 27.66729085 24.71508262 32 25 C32 25.66 32 26.32 32 27 C21.21908451 25.78141248 10.64818502 24.09160777 0 22 C0 14.74 0 7.48 0 0 Z " fill="#79C9F7" transform="translate(0,361)"/>
<path d="M0 0 C0 0.66 0 1.32 0 2 C-14.20692552 5.6317305 -28.39289137 9.13566329 -42.875 11.5 C-43.89456787 11.67176758 -44.91413574 11.84353516 -45.96459961 12.02050781 C-51.28360118 12.84191305 -55.72262335 13.11721623 -61 12 C-61 11.67 -61 11.34 -61 11 C-59.23076172 10.77957031 -59.23076172 10.77957031 -57.42578125 10.5546875 C-40.25298697 8.30873467 -23.10510639 5.16158429 -6.33203125 0.81640625 C-3 0 -3 0 0 0 Z " fill="#FBF6F6" transform="translate(198,577)"/>
<path d="M0 0 C-1.07668945 0.38220703 -2.15337891 0.76441406 -3.26269531 1.15820312 C-8.26022177 2.93388218 -13.25536899 4.71619521 -18.25 6.5 C-19.58822815 6.97737106 -19.58822815 6.97737106 -20.95349121 7.46438599 C-31.93785341 11.38763874 -42.889099 15.32797861 -53.60253906 19.953125 C-58.6934976 22.10216747 -58.6934976 22.10216747 -62 21 C-54.16455357 16.5255477 -45.82651564 13.73845992 -37.328125 10.8359375 C-31.35629193 8.79501433 -25.44228655 6.60743061 -19.53149414 4.39697266 C-17.35792945 3.58776675 -15.17966614 2.79260587 -13 2 C-12.20513184 1.70158203 -11.41026367 1.40316406 -10.59130859 1.09570312 C-9.80191895 0.81146484 -9.0125293 0.52722656 -8.19921875 0.234375 C-7.48983154 -0.02633789 -6.78044434 -0.28705078 -6.04956055 -0.55566406 C-3.68046256 -1.06927435 -2.30261375 -0.6492073 0 0 Z " fill="#F8FDFF" transform="translate(124,316)"/>
<path d="M0 0 C4.92068856 -0.12177581 9.39447196 0.28798408 14.2265625 1.20703125 C14.89609955 1.3330925 15.5656366 1.45915375 16.25546265 1.58903503 C17.66615874 1.85591988 19.07628211 2.12584838 20.48583984 2.39868164 C22.59738956 2.80715879 24.71054648 3.2061847 26.82421875 3.60351562 C35.26700843 5.20419736 43.64275444 6.99480082 52 9 C49.27046106 10.91076372 48.01836885 11.00210251 44.64697266 10.61621094 C43.31639953 10.33585712 41.98883987 10.04094966 40.6640625 9.734375 C39.59035904 9.50418671 39.59035904 9.50418671 38.4949646 9.26934814 C36.20197957 8.77565827 33.91353872 8.26387176 31.625 7.75 C28.63949603 7.09206787 25.65232874 6.44213883 22.6640625 5.796875 C21.93672913 5.63892456 21.20939575 5.48097412 20.46002197 5.3182373 C13.68142106 3.87433557 6.87807054 2.86061806 0 2 C0 1.34 0 0.68 0 0 Z " fill="#F4E6E6" transform="translate(992,486)"/>
<path d="M0 0 C0.78375 0.20753906 1.5675 0.41507813 2.375 0.62890625 C17.48188765 4.51958098 32.75362532 7.70993443 48 11 C47.34 11.66 46.68 12.32 46 13 C37.02931503 12.57997784 27.78005799 9.69045448 19.05053711 7.59594727 C16.78054695 7.05488383 14.50670937 6.53243099 12.23242188 6.00976562 C10.78618827 5.66519403 9.34021379 5.31953261 7.89453125 4.97265625 C7.21550247 4.81942398 6.53647369 4.66619171 5.83686829 4.50831604 C3.95239258 4.04321289 3.95239258 4.04321289 1 3 C0.67 2.01 0.34 1.02 0 0 Z " fill="#F8EEEE" transform="translate(1235,560)"/>
<path d="M0 0 C0.81210938 -0.01611328 1.62421875 -0.03222656 2.4609375 -0.04882812 C8.17319422 -0.05340525 12.38750732 1.03087963 17.625 3.3125 C16.965 3.9725 16.305 4.6325 15.625 5.3125 C14.63242188 4.82523437 13.63984375 4.33796875 12.6171875 3.8359375 C8.68506077 2.1575184 4.99275605 1.85158112 0.75 1.9375 C0.05326172 1.94330078 -0.64347656 1.94910156 -1.36132812 1.95507812 C-6.91369588 2.09453294 -11.301725 3.13823928 -16.375 5.3125 C-16.045 4.3225 -15.715 3.3325 -15.375 2.3125 C-10.35858501 -0.05328562 -5.42938098 -0.02134191 0 0 Z " fill="#F7ECEC" transform="translate(1257.375,291.6875)"/>
<path d="M0 0 C7.39393019 2.15928935 14.70417741 4.5304518 22 7 C22 7.66 22 8.32 22 9 C16.73721791 7.94744358 11.62512198 6.66256799 6.5 5.0625 C5.4790625 4.74410156 4.458125 4.42570312 3.40625 4.09765625 C2.6121875 3.73542969 1.818125 3.37320312 1 3 C0.67 2.01 0.34 1.02 0 0 Z " fill="#FAF3F3" transform="translate(1080,506)"/>
<path d="M0 0 C8.18088206 0.5466488 16.01785939 2.17123868 24 4 C23.34 4.66 22.68 5.32 22 6 C19.49609375 5.828125 19.49609375 5.828125 16.4375 5.25 C15.36757812 5.04890625 14.29765625 4.8478125 13.1953125 4.640625 C12.14085937 4.42921875 11.08640625 4.2178125 10 4 C8.63488281 3.74476563 8.63488281 3.74476563 7.2421875 3.484375 C5.14471133 3.06622863 3.06876954 2.54262808 1 2 C0.67 1.34 0.34 0.68 0 0 Z " fill="#F6E9E9" transform="translate(1259,567)"/>
<path d="M0 0 C-3.38484901 2.25656601 -6.46357979 2.92107307 -10.375 3.6875 C-11.035 3.82994141 -11.695 3.97238281 -12.375 4.11914062 C-16.21681961 4.88826985 -19.22117803 5.08695844 -23 4 C-15.84397566 0.10266867 -7.99179101 -0.25779971 0 0 Z " fill="#F3E2E2" transform="translate(414,509)"/>
<path d="M0 0 C-2.39409047 2.39409047 -4.07067225 2.78821084 -7.3125 3.6875 C-8.25738281 3.95949219 -9.20226562 4.23148438 -10.17578125 4.51171875 C-13.13765347 5.02379901 -15.1213481 4.78127347 -18 4 C-14.89576443 2.31945639 -11.83501066 1.26010501 -8.4375 0.3125 C-7.48746094 0.04050781 -6.53742187 -0.23148438 -5.55859375 -0.51171875 C-3 -1 -3 -1 0 0 Z " fill="#F1DEDE" transform="translate(791,542)"/>
<path d="M0 0 C0.64066406 0.19335938 1.28132812 0.38671875 1.94140625 0.5859375 C6.95110985 2.0940748 11.96539857 3.57717786 17 5 C17 5.66 17 6.32 17 7 C10.93267948 5.96232949 5.5626148 4.66038099 0 2 C0 1.34 0 0.68 0 0 Z " fill="#F6E9E9" transform="translate(568,537)"/>
<path d="M0 0 C0 0.66 0 1.32 0 2 C-2.62235014 2.86316536 -5.24733452 3.71580779 -7.875 4.5625 C-8.62136719 4.80935547 -9.36773438 5.05621094 -10.13671875 5.31054688 C-15.7734375 7.11328125 -15.7734375 7.11328125 -18 6 C-12.24231843 2.91926649 -6.67158559 0 0 0 Z " fill="#F9F0F0" transform="translate(808,536)"/>
<path d="M0 0 C0 0.66 0 1.32 0 2 C-1.24420647 2.5345256 -2.49570936 3.05208611 -3.75 3.5625 C-4.44609375 3.85253906 -5.1421875 4.14257812 -5.859375 4.44140625 C-8.30012784 5.07831803 -9.6403655 4.80248831 -12 4 C-8.14070855 1.42713903 -4.66785662 0 0 0 Z " fill="#F2E0E0" transform="translate(819,532)"/>
<path d="M0 0 C-3.66291938 2.47785723 -6.6109185 3.48964169 -11 4 C-11.33 3.34 -11.66 2.68 -12 2 C-10.56656 1.46809459 -9.12804633 0.94984742 -7.6875 0.4375 C-6.48673828 0.00244141 -6.48673828 0.00244141 -5.26171875 -0.44140625 C-3 -1 -3 -1 0 0 Z " fill="#F1DFDF" transform="translate(259,558)"/>
<path d="M0 0 C-3.03525486 2.02350324 -4.19426202 2.32124018 -7.6875 2.625 C-8.49574219 2.69976563 -9.30398437 2.77453125 -10.13671875 2.8515625 C-10.75160156 2.90054688 -11.36648437 2.94953125 -12 3 C-12 2.34 -12 1.68 -12 1 C-3.96428571 -1.27678571 -3.96428571 -1.27678571 0 0 Z " fill="#F5E8E8" transform="translate(181,582)"/>
<path d="M0 0 C3.3 0.99 6.6 1.98 10 3 C10 3.66 10 4.32 10 5 C3.375 4.25 3.375 4.25 0 2 C0 1.34 0 0.68 0 0 Z " fill="#F5E8E8" transform="translate(1080,506)"/>
<path d="M0 0 C0 0.66 0 1.32 0 2 C-4.95 3.485 -4.95 3.485 -10 5 C-9.67 4.01 -9.34 3.02 -9 2 C-5.82757352 0.68964993 -3.44118336 0 0 0 Z " fill="#F8EFEF" transform="translate(248,561)"/>
<path d="M0 0 C0 0.66 0 1.32 0 2 C-4.95 3.485 -4.95 3.485 -10 5 C-9.67 4.01 -9.34 3.02 -9 2 C-5.82757352 0.68964993 -3.44118336 0 0 0 Z " fill="#F9F1F1" transform="translate(312,538)"/>
<path d="M0 0 C-3.72965139 2.03435531 -5.66905042 3 -10 3 C-10 2.34 -10 1.68 -10 1 C-3.71428571 -1.42857143 -3.71428571 -1.42857143 0 0 Z " fill="#F3E2E2" transform="translate(208,575)"/>
<path d="M0 0 C-0.33 0.66 -0.66 1.32 -1 2 C-3.32156597 2.40729228 -5.6568787 2.74438677 -8 3 C-8.33 2.34 -8.66 1.68 -9 1 C-3.375 -1.125 -3.375 -1.125 0 0 Z " fill="#F1DDDD" transform="translate(348,526)"/>
<path d="M0 0 C-2.76223278 2.76223278 -5.20706617 2.57856291 -9 3 C-9.33 2.34 -9.66 1.68 -10 1 C-3.375 -1.125 -3.375 -1.125 0 0 Z " fill="#F2E1E1" transform="translate(378,517)"/>
<path d="M0 0 C3.3 0.33 6.6 0.66 10 1 C9.34 1.66 8.68 2.32 8 3 C4.4375 2.75 4.4375 2.75 1 2 C0.67 1.34 0.34 0.68 0 0 Z " fill="#F3E2E2" transform="translate(1259,567)"/>
</svg>
